<svg width="61" height="60" viewBox="0 0 61 60" fill="none" xmlns="http://www.w3.org/2000/svg">
<g clip-path="url(#clip0_42_175)">
<rect width="60" height="60" transform="translate(0.5)" fill="#820AD1"/>
<path d="M15.1664 18.5389C16.6846 16.9362 18.6984 16 21.0643 16C25.6733 16 28.7291 19.3814 29.3137 24.4471C29.5033 26.0921 29.5015 28.4114 29.4996 31.0977C29.4993 31.3732 29.4993 31.6526 29.4993 31.9355V41.9989H23.161V34.5557C23.161 34.5557 23.1481 28.1853 23.1094 26.9948C22.9393 21.8094 19.8843 18.5512 15.1658 18.5477C13.7422 20.059 12.9794 21.9069 12.8669 24.7324C12.8515 25.1265 12.8554 26.5233 12.8605 28.3643C12.8632 29.3182 12.8661 30.3913 12.8669 31.506C12.8716 36.3575 12.8669 42 12.8669 42H6.5287V30.5449C6.5287 30.1524 6.52157 29.7566 6.51443 29.3592C6.50006 28.5598 6.48557 27.7542 6.5287 26.9566C6.60031 25.6268 6.82923 24.3197 7.44673 23.1053C8.86017 20.3233 11.7563 18.5321 14.8439 18.5321C14.9517 18.5321 15.0597 18.5348 15.1664 18.5389Z" fill="white"/>
<path d="M54.4713 32.0456C54.5144 31.248 54.4999 30.4426 54.4856 29.6434C54.4784 29.246 54.4713 28.8503 54.4713 28.4578V17.0049H48.1328C48.1328 17.0049 48.128 22.6463 48.1328 27.4969C48.1335 28.6114 48.1365 29.6842 48.1391 30.6379C48.1443 32.4787 48.1482 33.8753 48.1328 34.2693C48.0203 37.0943 47.2574 38.9418 45.8337 40.4529C41.115 40.4496 38.06 37.1917 37.8898 32.0074C37.851 30.817 37.8346 27.8631 37.8346 24.4419V17L31.5008 17.0058V27.0674C31.5008 27.3503 31.5004 27.6295 31.5004 27.905C31.4984 30.5909 31.4968 32.9096 31.6863 34.5545C32.2698 39.6192 35.3257 43 39.935 43C42.3011 43 44.315 42.0639 45.8333 40.4615C45.94 40.4657 46.0479 40.4682 46.1557 40.4682C49.2434 40.4682 52.1398 38.6773 53.5533 35.8958C54.1709 34.6816 54.3997 33.3748 54.4713 32.0453L54.4713 32.0456Z" fill="white"/>
</g>
<defs>
<clipPath id="clip0_42_175">
<rect width="60" height="60" fill="white" transform="translate(0.5)"/>
</clipPath>
</defs>
</svg>
