<svg width="130" height="60" viewBox="0 0 130 60" fill="none" xmlns="http://www.w3.org/2000/svg">
<path d="M6 43.5632H18.5783L18.6452 43.214L6.24107 40.6357L6.48212 39.2526L18.8862 41.9383L18.9934 41.4548L7.27251 36.3518L7.78151 34.9418L19.5293 39.897L19.7704 39.5479L9.36235 31.7993L10.4339 30.1073L20.7752 37.8556L21.0832 37.4394L12.9389 27.0723L14.9348 25.4474L23.0121 35.3311L23.3605 35.0223L18.6586 23.0303L21.5119 21.8217L25.9458 33.5719L26.2941 33.4645V20.4386H30.8484V44.5565H6.00007L6 43.5632ZM78.3881 39.2927H83.3042V44.5973H79.2185C74.9186 44.5973 72.2797 43.1067 72.2797 37.6411V25.7967H69.3594C68.8504 25.7967 68.5824 25.179 68.9307 24.803L77.3833 15.188C77.745 14.7986 78.4013 15.0537 78.4013 15.5909V20.4923H83.2771V25.7966H78.4013V39.2926L78.3881 39.2927ZM60.867 20.103C57.9333 20.103 55.7366 21.795 54.6649 24.4539H54.4639V20.4789H48.6369V44.5968H54.7587V25.9039H58.8443C60.6259 25.9039 61.2822 26.2799 61.2822 28.1868V44.5968H67.404V26.9915C67.391 22.1438 65.0731 20.1025 60.8671 20.1025L60.867 20.103ZM38.0546 44.5971H44.1762V20.4792H38.0546V44.5971ZM118.146 24.7491H117.892V20.4787H111.81V44.5966H118.293V26.2394H124V20.1025H123.209C120.209 20.1025 118.882 21.432 118.146 24.7489L118.146 24.7491ZM108.97 31.9201V33.7464H90.6187C90.9533 37.3319 93.1902 39.7089 96.6461 39.7089C99.7406 39.7089 101.978 38.0571 102.433 36.016H108.957C107.59 41.1055 102.929 45 96.5524 45C89.118 45 84.0683 39.6957 84.0683 32.7395C84.0683 25.7833 88.9443 20.103 96.7134 20.103C104.054 20.103 108.971 25.1658 108.971 31.9204L108.97 31.9201ZM90.8056 29.3016H102.648C101.723 26.8843 99.7677 25.152 96.7401 25.152C94.0879 25.1655 91.7572 26.562 90.8056 29.3016Z" fill="#EA7100"/>
</svg>
