<svg width="130" height="60" viewBox="0 0 130 60" fill="none" xmlns="http://www.w3.org/2000/svg">
<path d="M52.0569 31.0274H49.6987L48.741 35.5429H46.0498L48.6674 23.3497H53.7328C55.7964 23.3497 57.1957 24.7942 57.1957 26.4391C57.1957 29.7116 54.5804 31.0274 52.0569 31.0274ZM52.3873 25.1402H50.9513L50.0669 29.2359H50.9878C52.7933 29.2359 54.4507 28.834 54.4507 26.695C54.4507 25.7255 53.4379 25.1415 52.3886 25.1415L52.3873 25.1402ZM66.1495 32.2886C65.8181 33.7696 65.7249 34.8477 65.7079 35.5419H63.1099C63.1464 35.0854 63.3129 34.2261 63.4596 33.386C62.7967 34.5744 61.7104 35.7431 59.9038 35.7431C58.0983 35.7431 57.1038 34.5185 57.1038 32.8179C57.1038 28.7056 60.8065 26.1647 64.3257 26.1647C65.3935 26.1647 66.7758 26.3467 67.4203 26.5847L66.1482 32.2898L66.1495 32.2886ZM63.8463 27.8655C61.7276 27.8655 59.7937 30.0952 59.7937 32.5449C59.7937 33.3679 60.0886 34.0441 61.0463 34.0441C62.3357 34.0441 63.5697 32.2888 64.0859 30.0954L64.5838 27.9745C64.3467 27.8938 64.0968 27.8568 63.8463 27.8655ZM76.3729 34.3183C75.5449 38.0109 74.1811 39.692 70.092 39.692C68.8564 39.692 67.6784 39.4553 66.8872 39.1811L67.3838 37.3712C68.2682 37.8457 69.2063 37.9927 70.0369 37.9927C72.3388 37.9927 73.2232 36.786 73.6477 35.0672L73.9413 33.8607C73.0569 35.0307 72.1358 35.5429 70.6069 35.5429C68.711 35.5429 67.7885 34.373 67.7885 32.8192C67.7885 28.6872 71.5841 26.183 75.1206 26.183C76.1344 26.183 77.4055 26.3651 78.1051 26.5847L76.3742 34.3171L76.3729 34.3183ZM74.5676 27.8836C72.4502 27.8836 70.4784 30.0405 70.4784 32.5993C70.4784 33.4226 70.7731 34.0257 71.6772 34.0257C73.4079 34.0257 74.3656 31.8323 74.7524 30.2045L75.2868 27.9929C75.0539 27.921 74.8115 27.8842 74.5676 27.8836ZM86.1928 29.2359C87.5187 29.5283 88.3666 30.3697 88.3666 31.6489C88.3666 34.793 85.3453 35.5429 82.8033 35.5429H78.253L80.8683 23.3497H85.7881C87.4271 23.3497 89.1959 24.0987 89.1959 25.9085C89.1959 27.7184 87.9801 28.9081 86.1928 29.2359ZM83.1715 30.077H82.0095L81.1828 33.9154H82.4523C84.0008 33.9154 85.6033 33.4407 85.6033 31.5568C85.6033 30.2775 84.166 30.077 83.1715 30.077ZM84.6076 24.9763H83.0786L82.3422 28.4674H83.6511C85.0872 28.4674 86.4877 27.9189 86.4877 26.2923C86.4877 25.2689 85.4541 24.9763 84.6076 24.9763ZM98.5166 32.2886C98.1862 33.7696 98.0934 34.8477 98.0751 35.5419H95.4771C95.5136 35.0854 95.6801 34.2261 95.8267 33.386C95.1639 34.5744 94.0775 35.7431 92.2723 35.7431C90.4667 35.7431 89.471 34.5185 89.471 32.8179C89.471 28.7056 93.1749 26.1647 96.6928 26.1647C97.762 26.1647 99.1429 26.3467 99.7875 26.5847L98.5166 32.2886ZM96.2145 27.8655C94.0961 27.8655 92.1621 30.0952 92.1621 32.5449C92.1621 33.3679 92.4557 34.0441 93.4147 34.0441C94.7038 34.0441 95.9381 32.2888 96.4543 30.0954L96.9509 27.9745C96.7142 27.8939 96.4646 27.8569 96.2145 27.8655ZM109.607 29.4737L108.317 35.5429H105.775L106.937 30.0224C107.011 29.6935 107.084 29.3828 107.084 29.0707C107.084 28.3765 106.751 27.8836 105.867 27.8836C104.485 27.8836 103.823 29.1083 103.565 30.2966L102.441 35.5429H99.8804L101.391 28.413C101.538 27.7368 101.668 27.0607 101.741 26.3651H104.136L103.86 27.9917C104.744 26.768 105.665 26.183 107.194 26.183C108.723 26.183 109.718 26.9138 109.718 28.4311C109.718 28.76 109.681 29.1085 109.607 29.4737ZM116.276 30.5333L119.188 35.5429H116.276L113.771 30.7351L112.775 35.5419H110.215L113.017 22.3618H115.558L113.919 30.1498L117.879 26.3664H120.882L116.276 30.5333Z" fill="black"/>
<path d="M25.1759 45.5563C16.5669 45.5563 9.56299 38.6069 9.56299 30.0639C9.56299 21.5204 16.5669 14.57 25.1759 14.57C33.7848 14.57 40.7887 21.5204 40.7887 30.0637C40.7887 38.6069 33.7848 45.5563 25.1759 45.5563Z" fill="black"/>
<path d="M38.1577 27.9637C38.1577 35.0793 32.345 40.8464 25.1759 40.8464C18.0055 40.8464 12.194 35.0796 12.194 27.9637C12.194 20.8493 18.0055 15.081 25.1759 15.081C32.3462 15.081 38.1577 20.8493 38.1577 27.9637Z" fill="#DDE05B"/>
<path d="M25.1759 41.1766C17.7484 41.1766 11.7048 35.1801 11.7048 27.8096C11.7048 20.4391 17.7487 14.4413 25.1759 14.4413C32.6031 14.4413 38.647 20.4378 38.647 27.8096C38.647 35.1801 32.6031 41.1766 25.1759 41.1766ZM25.1759 15.4099C18.2867 15.4099 12.682 20.972 12.682 27.8096C12.682 34.6459 18.2867 40.2068 25.1759 40.2068C32.0651 40.2068 37.6697 34.6459 37.6697 27.8093C37.6697 20.9727 32.0648 15.4101 25.1759 15.4101V15.4099Z" fill="black"/>
<path d="M33.5377 36.104C33.0911 38.1719 32.0367 40.0619 30.5078 41.5352C28.9789 43.0085 27.0441 43.9988 24.948 44.3809C22.852 44.7631 20.6889 44.5199 18.7321 43.6822C16.7753 42.8444 15.1128 41.4497 13.9547 39.6744C12.402 37.2934 11.866 34.3979 12.4643 31.6247C13.0711 28.8597 14.7576 26.4461 17.1543 24.9127C19.5511 23.3794 22.4626 22.8514 25.2509 23.4444C28.0392 24.0374 30.477 25.703 32.03 28.0764C33.5831 30.4498 34.1248 33.3373 33.5364 36.1062L33.5377 36.104Z" fill="#9ED5D6"/>
<path d="M23.0245 45.0451C22.2234 45.0446 21.4247 44.96 20.6416 44.7928C19.1939 44.4892 17.8212 43.9038 16.603 43.0704C15.3848 42.2369 14.3452 41.172 13.5443 39.9373C12.737 38.7063 12.1838 37.3287 11.9168 35.8841C11.6498 34.4395 11.6742 32.9566 11.9888 31.5215C13.2888 25.496 19.2886 21.6431 25.3619 22.9347C31.4337 24.2263 35.3163 30.1802 34.0148 36.206C33.7088 37.6428 33.1186 39.0051 32.2783 40.214C31.4381 41.4229 30.3644 42.4543 29.1196 43.2486C27.3057 44.4198 25.1884 45.0439 23.0242 45.0451H23.0245ZM22.9999 23.6544C18.2537 23.6544 13.9762 26.9392 12.9427 31.7255C12.6561 33.0359 12.6344 34.3898 12.8785 35.7087C13.1227 37.0276 13.628 38.2854 14.3653 39.4092C15.0962 40.5372 16.0453 41.5101 17.1577 42.2716C18.27 43.0332 19.5235 43.5683 20.8457 43.8459C22.1663 44.1306 23.5308 44.1525 24.8601 43.9104C26.1894 43.6683 27.4571 43.167 28.5898 42.4354C29.7267 41.71 30.7073 40.7679 31.4748 39.6638C32.2423 38.5596 32.7814 37.3153 33.0609 36.003C34.2487 30.4993 30.7039 25.0626 25.1566 23.8826C24.4479 23.7313 23.7248 23.6548 22.9999 23.6544Z" fill="black"/>
<path d="M39.0997 34.3145C39.0997 36.0743 38.3952 37.762 37.1413 39.0064C35.8874 40.2507 34.1867 40.9498 32.4134 40.9498C30.64 40.9498 28.9394 40.2507 27.6854 39.0064C26.4315 37.762 25.7271 36.0743 25.7271 34.3145C25.7271 32.5547 26.4315 30.867 27.6854 29.6227C28.9394 28.3783 30.64 27.6793 32.4134 27.6793C34.1867 27.6793 35.8874 28.3783 37.1413 29.6227C38.3952 30.867 39.0997 32.5547 39.0997 34.3145Z" fill="#FFE72D"/>
<path d="M32.4137 41.4339C30.5118 41.4317 28.6883 40.681 27.3434 39.3464C25.9984 38.0117 25.2418 36.2022 25.2396 34.3148C25.2418 32.4273 25.9983 30.6178 27.3432 29.2831C28.6881 27.9485 30.5115 27.1976 32.4135 27.1954C34.3154 27.1977 36.1388 27.9485 37.4837 29.2831C38.8286 30.6177 39.5852 32.4271 39.5877 34.3145C39.5852 36.2019 38.8286 38.0113 37.4837 39.3459C36.1389 40.6805 34.3156 41.4314 32.4137 41.4339ZM32.4137 28.1652C30.7707 28.167 29.1954 28.8155 28.0335 29.9683C26.8715 31.1212 26.2178 32.6843 26.2155 34.3148C26.2176 35.9454 26.8713 37.5086 28.0332 38.6616C29.1951 39.8147 30.7703 40.4633 32.4135 40.4654C34.0567 40.4637 35.6322 39.8151 36.7942 38.662C37.9561 37.5089 38.6097 35.9455 38.6114 34.3148C38.6095 32.6842 37.9558 31.121 36.7939 29.9681C35.6319 28.8152 34.0568 28.1668 32.4137 28.1652Z" fill="black"/>
</svg>
