<svg width="131" height="60" viewBox="0 0 131 60" fill="none" xmlns="http://www.w3.org/2000/svg">
<mask id="mask0_42_218" style="mask-type:luminance" maskUnits="userSpaceOnUse" x="11" y="12" width="109" height="36">
<path d="M11.2865 12.2784H119.5V47.3077H11.2865V12.2784Z" fill="white"/>
</mask>
<g mask="url(#mask0_42_218)">
<path d="M33.6915 40.5646H38.7288V25.7647H33.6915V40.5646ZM40.4659 15.6938H37.0787V19.1091H40.4659V15.6938ZM21.4444 17.3577H16.5809V21.6488H21.0972C23.9633 21.6488 25.6135 23.0499 25.6135 25.6771C25.6135 28.3043 23.9633 29.7931 21.0972 29.7931H16.5809V21.7363H11.543V40.5646H16.5809V34.0841H21.3574C27.1773 34.0841 30.5645 30.9315 30.5645 25.502C30.5645 20.4227 27.2636 17.3577 21.4444 17.3577ZM43.8531 12.2784H33.6915V22.5245H43.8531V12.2784ZM42.2029 20.773H35.4285V13.9423H42.2029V20.773ZM71.7338 17.3577H67.13V21.6488H71.473C74.3391 21.6488 75.9899 23.0499 75.9899 25.6771C75.9899 28.3043 74.3391 29.7931 71.4736 29.7931H67.1306V21.7363H62.0927V40.5646H67.1306V34.0841H71.7338C77.5531 34.0841 80.9403 30.9315 80.9403 25.502C80.9403 20.4227 77.5531 17.3577 71.7338 17.3577ZM114.032 22.7872L109.689 33.8214L105.347 22.7872H100.136L107.084 40.5646L104.391 47.3077H109.689L119.244 22.7872H114.032ZM91.4497 22.6996C88.4103 22.6996 86.0652 23.4002 83.4593 24.7138L85.0224 28.2167C86.8465 27.1659 88.6705 26.6404 90.3206 26.6404C92.7526 26.6404 93.9687 27.6913 93.9687 29.6179V29.9682H89.1046C84.7622 29.9682 82.4171 31.9824 82.4171 35.3102C82.4171 38.5504 84.6753 40.8273 88.4966 40.8273C90.9286 40.8273 92.6657 39.9515 94.0556 38.4628V40.3894H99.0066V28.8298C98.8327 25.0641 96.1398 22.6996 91.4497 22.6996ZM94.4028 34.6096C93.8817 36.0983 92.4055 37.3244 90.3206 37.3244C88.5835 37.3244 87.5414 36.4486 87.5414 35.0475C87.5414 33.6463 88.4966 33.0333 90.4076 33.0333H94.4028V34.6096ZM51.5833 36.7113C49.1512 36.7113 47.4142 34.7847 47.4142 31.8948C47.4142 29.0925 49.1512 27.1659 51.5833 27.1659C53.3203 27.1659 54.6233 27.8665 55.5785 29.0925L58.9663 26.6404C57.4025 24.276 54.7103 22.8748 51.3224 22.8748C46.0243 22.7872 42.3768 26.4653 42.3768 31.8948C42.3768 37.3244 46.0249 40.9149 51.3231 40.9149C54.9705 40.9149 57.6633 39.4261 59.1396 36.9741L55.6654 34.6096C54.7972 36.0108 53.4073 36.7113 51.5833 36.7113Z" fill="#11C76F"/>
</g>
</svg>
