<svg width="60" height="60" viewBox="0 0 60 60" fill="none" xmlns="http://www.w3.org/2000/svg">
<path d="M47.6414 15.7391C47.8908 18.2007 47.081 20.7408 45.4212 22.7105C45.3949 22.7428 45.3859 22.7854 45.3979 22.8249C46.27 25.6413 45.1581 28.9454 42.6939 30.8593L41.7708 31.7594C41.7456 31.7839 41.7325 31.8181 41.7343 31.8534C41.8752 34.2905 40.5691 36.6916 38.4064 37.9697L37.0554 38.7679C37.0277 38.7847 37.0067 38.8122 36.999 38.844C36.9912 38.8752 36.9965 38.9087 37.0134 38.9363L37.0164 38.9411L37.0715 39.0298H37.0691L41.3812 46.3169C41.4225 46.387 41.4448 46.4685 41.4448 46.5506C41.4448 46.7933 41.2566 46.9935 41.0252 46.997L38.8775 47C38.6491 47 38.4399 46.879 38.3188 46.6765L37.5804 45.4276C37.5786 45.4247 37.5768 45.421 37.5756 45.4174L35.7348 42.3123C35.7091 42.2685 35.6599 42.2476 35.6107 42.2584C33.6573 42.7198 31.6643 42.954 29.688 42.954C27.6651 42.954 25.6294 42.7102 23.6365 42.2284C23.5903 42.2176 23.5363 42.2409 23.5112 42.2835L20.9613 46.6752C20.839 46.8783 20.6304 46.9994 20.4021 46.9994H20.3775L18.2124 46.9964C17.9798 46.9934 17.7917 46.7926 17.7917 46.55C17.7917 46.4679 17.8138 46.387 17.8545 46.3169L18.985 44.4107C18.9874 44.4066 18.9899 44.4029 18.9928 44.4L22.1469 39.0291H22.1385L22.1961 38.9363C22.2135 38.9087 22.2189 38.8745 22.211 38.8434C22.2033 38.811 22.1828 38.7834 22.1547 38.7673L20.8037 37.9691C18.641 36.6904 17.3348 34.2899 17.4763 31.8529C17.4781 31.8175 17.465 31.7834 17.4398 31.7587L16.5167 30.8587C14.0525 28.9454 12.9406 25.6413 13.8128 22.8244C13.8248 22.7848 13.8164 22.7417 13.7894 22.7099C12.1296 20.7402 11.3205 18.2001 11.5698 15.7385C11.6375 15.2813 11.8312 14.461 12.3694 14.1032C12.4414 14.0601 12.5079 14.0248 12.572 13.996C12.7183 13.9301 12.8724 13.8983 13.0305 13.9049C13.0528 13.9061 13.0731 13.9169 13.0857 13.9355C14.0376 15.3041 15.8736 17.4253 19.217 19.7635C20.9121 20.9494 22.2261 21.7481 23.3242 22.4043C23.3301 22.4073 23.6209 22.5811 23.6209 22.5811C23.9373 22.7698 24.2244 22.9412 24.4948 23.1066C24.9785 23.4254 25.4065 23.7513 25.7883 24.0731C26.688 24.8593 28.5857 26.8212 28.868 29.5925C28.868 29.5925 29.1918 31.7953 27.7597 34.7082L25.1781 39.4324C25.1584 39.4666 25.1553 39.5092 25.1709 39.5457C25.1865 39.5822 25.2183 39.6086 25.256 39.6157C26.7287 39.8956 28.2201 40.037 29.688 40.037C31.1062 40.037 32.5484 39.9046 33.9738 39.6433C34.0115 39.6362 34.0439 39.6104 34.0595 39.5732C34.075 39.5367 34.0727 39.4941 34.0523 39.46L33.912 39.2041L33.9102 39.2011L33.1058 37.733H33.1071L31.4209 34.6518C30.0207 31.7678 30.3396 29.5932 30.3396 29.5932C30.6147 26.8943 32.4213 24.9636 33.3468 24.1378C33.7466 23.7951 34.201 23.447 34.7164 23.1071C34.9649 22.9546 35.2277 22.7979 35.5143 22.627L35.8871 22.4049C36.9852 21.7487 38.2991 20.9494 39.9942 19.7641C43.3377 17.4259 45.1737 15.3041 46.1255 13.9361C46.1381 13.9175 46.1585 13.9061 46.1806 13.9055C46.3389 13.8995 46.4929 13.9307 46.6392 13.9966C46.7033 14.0253 46.7699 14.0607 46.8418 14.1038C47.3801 14.4616 47.5737 15.2819 47.6414 15.7391Z" fill="#002BBC"/>
</svg>
