<svg width="130" height="60" viewBox="0 0 130 60" fill="none" xmlns="http://www.w3.org/2000/svg">
<path d="M78.0672 19.3809C78.2549 21.2332 77.6455 23.1446 76.3966 24.6267C76.3768 24.651 76.37 24.683 76.379 24.7128C77.0353 26.8321 76.1986 29.3183 74.3443 30.7585L73.6498 31.4358C73.6308 31.4543 73.6209 31.48 73.6222 31.5066C73.7282 33.3404 72.7454 35.1472 71.1181 36.1089L70.1014 36.7095C70.0806 36.7222 70.0648 36.7429 70.059 36.7668C70.0532 36.7903 70.0572 36.8155 70.0699 36.8363L70.0721 36.8399L70.1136 36.9066H70.1118L73.3566 42.3901C73.3877 42.4428 73.4044 42.5041 73.4044 42.5659C73.4044 42.7485 73.2628 42.8991 73.0886 42.9018L71.4726 42.9041C71.3007 42.9041 71.1433 42.813 71.0522 42.6606L70.4965 41.7209C70.4951 41.7187 70.4938 41.7159 70.4929 41.7132L69.1078 39.3767C69.0884 39.3437 69.0514 39.3279 69.0144 39.3361C67.5445 39.6833 66.0447 39.8595 64.5577 39.8595C63.0354 39.8595 61.5036 39.6761 60.004 39.3135C59.9692 39.3054 59.9286 39.323 59.9097 39.355L57.991 42.6597C57.8989 42.8125 57.742 42.9036 57.5702 42.9036H57.5517L55.9225 42.9014C55.7475 42.8991 55.6059 42.748 55.6059 42.5654C55.6059 42.5037 55.6226 42.4428 55.6532 42.3901L56.5038 40.9557C56.5057 40.9526 56.5075 40.9498 56.5097 40.9476L58.8831 36.9061H58.8768L58.9201 36.8363C58.9332 36.8155 58.9373 36.7898 58.9314 36.7664C58.9255 36.742 58.9101 36.7213 58.889 36.7091L57.8724 36.1085C56.245 35.1463 55.2621 33.3399 55.3686 31.5062C55.37 31.4795 55.3601 31.4538 55.3411 31.4353L54.6465 30.7581C52.7923 29.3183 51.9556 26.8321 52.6118 24.7124C52.6209 24.6826 52.6146 24.6502 52.5943 24.6262C51.3453 23.1441 50.7364 21.2327 50.924 19.3804C50.975 19.0364 51.1207 18.4191 51.5257 18.1499C51.5799 18.1174 51.6299 18.0908 51.6782 18.0692C51.7882 18.0196 51.9042 17.9957 52.0232 18.0006C52.0399 18.0015 52.0553 18.0097 52.0648 18.0236C52.781 19.0535 54.1625 20.6497 56.6784 22.4091C57.954 23.3015 58.9427 23.9025 59.769 24.3962C59.7735 24.3985 59.9922 24.5293 59.9922 24.5293C60.2303 24.6713 60.4464 24.8003 60.6499 24.9247C61.0138 25.1646 61.3359 25.4099 61.6232 25.652C62.3002 26.2436 63.7282 27.7199 63.9406 29.8053C63.9406 29.8053 64.1842 31.4628 63.1067 33.6547L61.164 37.2096C61.1492 37.2353 61.1469 37.2674 61.1586 37.2949C61.1703 37.3224 61.1942 37.3422 61.2226 37.3476C62.3308 37.5581 63.4531 37.6645 64.5577 37.6645C65.6248 37.6645 66.71 37.5649 67.7826 37.3683C67.811 37.3629 67.8354 37.3435 67.8471 37.3155C67.8588 37.288 67.8571 37.256 67.8417 37.2304L67.7361 37.0378L67.7348 37.0356L67.1295 35.9309H67.1304L65.8616 33.6123C64.808 31.4421 65.048 29.8058 65.048 29.8058C65.255 27.7749 66.6144 26.3221 67.3109 25.7007C67.6116 25.4428 67.9536 25.1809 68.3414 24.9251C68.5284 24.8104 68.7261 24.6925 68.9418 24.5639L69.2223 24.3967C70.0486 23.903 71.0374 23.3015 72.3129 22.4096C74.8288 20.6502 76.2103 19.0535 76.9266 18.0241C76.9361 18.0101 76.9514 18.0015 76.9681 18.0011C77.0871 17.9966 77.203 18.02 77.3131 18.0696C77.3613 18.0913 77.4114 18.1179 77.4656 18.1503C77.8706 18.4195 78.0163 19.0368 78.0672 19.3809Z" fill="#002BBC"/>
<path d="M46.9468 34.0032C48.3437 34.0808 50.0784 34.1772 51.5312 34.6777C53.9997 35.5286 54.5455 37.1748 54.5689 38.4054C54.591 39.5602 54.1734 40.5724 53.362 41.3336C51.7743 42.822 49.2268 42.909 48.7324 42.9113C48.64 42.9167 48.4375 42.9252 48.1479 42.9252C47.0352 42.9252 44.1882 42.7846 41.7828 41.4814L41.3227 41.2109C41.1771 41.1266 41.0859 40.9701 41.0859 40.8028C41.0859 40.7275 41.1049 40.6536 41.1428 40.5828L41.7237 39.4903C41.8063 39.3365 41.9659 39.2409 42.1405 39.2409C42.2212 39.2409 42.3015 39.2621 42.3728 39.3017L42.9637 39.6269C45.4088 40.9475 48.5517 40.7641 48.6149 40.7605L48.6157 40.7604C48.6454 40.7582 48.6784 40.7564 48.7135 40.7577C49.2687 40.7577 50.8943 40.5886 51.7134 39.8153C52.0873 39.4623 52.256 39.0263 52.2452 38.4428C52.2131 36.7596 50.39 36.351 46.8101 36.1522L46.7926 36.1513L46.7661 36.1498C46.4067 36.1296 46.074 36.111 45.7646 36.0864C41.8708 35.7766 41.3002 33.6249 41.307 32.37C41.3124 31.3293 41.8293 28.8647 46.5003 28.4584C47.4723 28.3736 48.4754 28.4273 49.4816 28.618C49.5912 28.6392 49.677 28.6564 49.7369 28.6694L50.2367 28.7893C50.4486 28.8417 50.5966 29.0302 50.5966 29.2479C50.5966 29.2876 50.5917 29.3255 50.5818 29.3652L50.294 30.5551C50.2371 30.7612 50.0495 30.9041 49.837 30.9041C49.8032 30.9041 49.7694 30.9001 49.7329 30.8919L49.1741 30.7657C49.1167 30.7528 49.0464 30.7379 48.9922 30.7264L48.9914 30.7263L48.9499 30.7174C48.1925 30.5786 47.4416 30.5402 46.7177 30.6029C45.3131 30.7251 43.638 31.1328 43.6312 32.3813C43.6285 32.8615 43.6244 33.7552 45.9635 33.9414C46.2544 33.9644 46.5909 33.9834 46.9468 34.0032Z" fill="#002BBC"/>
<path fill-rule="evenodd" clip-rule="evenodd" d="M92.7921 42.4036L84.9093 29.083C84.732 28.7719 84.3419 28.5708 83.9148 28.5708C83.5039 28.5708 83.1223 28.7678 82.9184 29.0862L75.9445 40.9616C75.9422 40.9638 75.9404 40.9666 75.9386 40.9697L75.0879 42.4041C75.0573 42.4568 75.041 42.5177 75.041 42.5794C75.041 42.7621 75.1827 42.9131 75.3577 42.9158L76.9868 42.9181H77.0053C77.1772 42.9181 77.3341 42.827 77.4261 42.6741L79.3448 39.3694C79.3638 39.3374 79.4044 39.3198 79.4391 39.328C80.9384 39.6905 82.4706 39.874 83.9928 39.874C85.4799 39.874 86.9796 39.6977 88.4495 39.3505C88.4865 39.3424 88.5235 39.3582 88.5429 39.3911L89.9279 41.7277C89.9293 41.7304 89.9306 41.7331 89.932 41.7354L90.4871 42.675C90.5785 42.8275 90.7358 42.9185 90.9079 42.9185L92.5237 42.9162C92.6979 42.9135 92.8395 42.763 92.8395 42.5799C92.8402 42.5177 92.8233 42.4572 92.7921 42.4036ZM87.2173 37.3814C86.1447 37.5781 85.0595 37.6777 83.9923 37.6777C82.8877 37.6777 81.7656 37.5712 80.6574 37.3607C80.629 37.3553 80.605 37.3354 80.5933 37.3079C80.5816 37.2804 80.5834 37.2484 80.5987 37.2227L83.8413 31.6892C83.857 31.6626 83.8854 31.6459 83.9152 31.6454C83.9459 31.6454 83.9734 31.6617 83.9896 31.6888L87.2764 37.243C87.2917 37.2687 87.2939 37.3007 87.2818 37.3282C87.2701 37.3566 87.2457 37.3765 87.2173 37.3814Z" fill="#002BBC"/>
<path fill-rule="evenodd" clip-rule="evenodd" d="M39.7516 42.4036L31.8688 29.0834C31.6915 28.7723 31.3014 28.5712 30.8742 28.5712C30.4633 28.5712 30.0817 28.7682 29.8779 29.0866L22.9039 40.962C22.9016 40.9643 22.8998 40.967 22.898 40.9701L22.0474 42.404C22.0167 42.4568 22 42.5177 22 42.5795C22 42.7621 22.1416 42.9131 22.3166 42.9158L23.9458 42.9181H23.9643C24.1361 42.9181 24.2931 42.827 24.3851 42.6741L26.3038 39.3695C26.3228 39.3375 26.3634 39.3199 26.3981 39.328C27.8974 39.6905 29.4295 39.874 30.9518 39.874C32.4389 39.874 33.9386 39.6977 35.4086 39.3505C35.4456 39.3424 35.4825 39.3582 35.5019 39.3911L36.8871 41.7276C36.8871 41.7276 36.888 41.7302 36.8886 41.7315C36.8892 41.7328 36.8907 41.7353 36.8907 41.7353L37.4464 42.675C37.5374 42.8274 37.6949 42.9185 37.8667 42.9185L39.4828 42.9163C39.6569 42.9136 39.7985 42.7629 39.7985 42.5799C39.799 42.5177 39.7827 42.4573 39.7516 42.4036ZM34.1763 37.3814C33.1037 37.578 32.0186 37.6776 30.9514 37.6776C29.8468 37.6776 28.7246 37.5713 27.6164 37.3606C27.588 37.3553 27.564 37.3354 27.5523 37.3079C27.5406 37.2804 27.5424 37.2484 27.5577 37.2227L30.8003 31.6892C30.8161 31.6626 30.8445 31.6459 30.8742 31.6455C30.9049 31.6455 30.9324 31.6617 30.9487 31.6888L34.2354 37.243C34.2507 37.2687 34.253 37.3007 34.2408 37.3282C34.2291 37.3566 34.2052 37.3764 34.1763 37.3814Z" fill="#002BBC"/>
<path d="M104.367 34.6777C102.915 34.1772 101.18 34.0808 99.7831 34.0032C99.4273 33.9834 99.0911 33.9644 98.7997 33.9414C96.4607 33.7552 96.4648 32.8615 96.4675 32.3813C96.4743 31.1328 98.1497 30.7251 99.554 30.6029C100.278 30.5402 101.029 30.5786 101.786 30.7174C101.841 30.7292 101.936 30.749 102.01 30.7657L102.569 30.8919C102.605 30.9001 102.639 30.9041 102.673 30.9041C102.886 30.9041 103.073 30.7612 103.13 30.5551L103.418 29.3652C103.427 29.3255 103.433 29.2876 103.433 29.2479C103.433 29.0302 103.284 28.8417 103.073 28.7893L102.573 28.6694C102.513 28.6564 102.427 28.6392 102.318 28.618C101.311 28.4273 100.308 28.3736 99.3365 28.4584C94.6654 28.8647 94.1482 31.3293 94.1428 32.37C94.136 33.6249 94.7067 35.7766 98.6004 36.0864C98.9115 36.1111 99.2443 36.1298 99.6055 36.15L99.6286 36.1513L99.6462 36.1522C103.226 36.351 105.049 36.7596 105.081 38.4428C105.092 39.0263 104.923 39.4623 104.55 39.8153C103.73 40.5886 102.105 40.7577 101.549 40.7577C101.515 40.7564 101.482 40.7582 101.452 40.7604L101.451 40.7605C101.387 40.7641 98.2446 40.9475 95.7999 39.6269L95.2089 39.3017C95.1378 39.2621 95.0571 39.2409 94.9765 39.2409C94.8023 39.2409 94.6423 39.3365 94.5596 39.4903L93.9788 40.5828C93.9409 40.6536 93.9219 40.7275 93.9219 40.8028C93.9219 40.9701 94.0134 41.1266 94.1591 41.2109L94.6186 41.4814C97.024 42.7846 99.8712 42.9252 100.984 42.9252C101.273 42.9252 101.476 42.9167 101.568 42.9113C102.063 42.909 104.61 42.822 106.198 41.3336C107.009 40.5724 107.427 39.5602 107.405 38.4054C107.382 37.1748 106.836 35.5286 104.367 34.6777Z" fill="#002BBC"/>
</svg>
