<svg width="130" height="60" viewBox="0 0 130 60" fill="none" xmlns="http://www.w3.org/2000/svg">
<path d="M40.5188 27.9056C39.6995 27.9137 38.8917 28.0998 38.1517 28.4507V22.7271C37.2075 23.0853 36.3187 23.5747 35.5115 24.1807C35.3347 24.3217 35.1934 24.5019 35.0986 24.7069C35.0037 24.9119 34.9581 25.1361 34.9652 25.3618V39.353C36.3155 39.7983 37.7313 40.0133 39.1531 39.989C43.3411 39.989 45.7082 37.4451 45.7082 33.811C45.7082 30.1769 44.0694 27.9056 40.5188 27.9056ZM39.3352 37.4451C38.9324 37.467 38.5293 37.4051 38.1517 37.2634V30.9038C38.73 30.6683 39.348 30.545 39.9725 30.5403C41.6113 30.5403 42.4307 31.6306 42.4307 33.7202C42.4307 35.8098 41.4292 37.4451 39.3352 37.4451ZM19.5791 33.9019L18.3045 34.6287C18.1224 34.7195 18.1224 34.8104 18.1224 34.9921V39.6256C18.1224 39.8073 18.2135 39.8981 18.3045 39.8981H19.5791V33.9019ZM53.8109 27.9965C53.1863 27.9886 52.5693 28.1336 52.0139 28.4186C51.4584 28.7037 50.9813 29.1203 50.6245 29.6318C50.5355 29.1398 50.4139 28.6541 50.2603 28.1782L48.9857 27.9965L47.7111 28.1782V39.7164C48.2101 39.8775 48.736 39.9392 49.2588 39.8981L50.8976 39.7164V34.0836C50.8976 31.8123 52.0811 30.6312 53.6288 30.6312H54.7214C54.8574 29.7887 54.8574 28.9299 54.7214 28.0873L53.8109 27.9965ZM21.9462 32.5391L20.3074 33.4476H20.2164V39.7164H22.0372C22.1338 39.7164 22.2264 39.6781 22.2947 39.61C22.363 39.5418 22.4014 39.4494 22.4014 39.353V32.8116C22.4196 32.7533 22.4177 32.6905 22.3959 32.6334C22.3741 32.5763 22.3337 32.5282 22.2812 32.4967C22.2287 32.4653 22.1671 32.4524 22.1063 32.4601C22.0456 32.4677 21.9892 32.4956 21.9462 32.5391ZM19.397 23.4539C18.053 23.4436 16.7113 23.5653 15.3912 23.8173C16.0978 22.9005 17.0087 22.1605 18.0516 21.6558C19.0946 21.1512 20.241 20.8959 21.3999 20.91C23.1728 20.91 24.8979 21.4839 26.3162 22.5454C26.4983 22.7271 26.6804 22.8179 26.8625 22.6362C26.9012 22.6021 26.9322 22.5602 26.9535 22.5132C26.9748 22.4662 26.9858 22.4152 26.9858 22.3637C26.9858 22.3121 26.9748 22.2611 26.9535 22.2141C26.9322 22.1672 26.9012 22.1252 26.8625 22.0911C26.0479 21.1 25.018 20.3068 23.8507 19.7716C22.6835 19.2364 21.4096 18.9733 20.1253 19.0021C18.402 19.0332 16.7273 19.5773 15.316 20.5648C13.9047 21.5522 12.8213 22.9379 12.2047 24.5441L9.29133 25.7252C9.04856 25.9069 8.95751 26.0886 9.01821 26.2703C9.0366 26.3226 9.06676 26.3701 9.10636 26.409C9.14596 26.4479 9.19397 26.4773 9.2467 26.4948C9.29942 26.5123 9.35547 26.5176 9.41055 26.5102C9.46563 26.5028 9.51828 26.4829 9.56446 26.452C10.3094 26.2173 11.07 26.0351 11.8405 25.9069C11.7612 26.326 11.7307 26.7528 11.7495 27.1788C11.7249 28.6232 12.0719 30.0498 12.7573 31.3222C13.4427 32.5947 14.4435 33.6705 15.6643 34.447C15.8464 34.5378 16.1195 34.5378 16.2105 34.3561C16.3016 34.1744 16.3016 33.9927 16.1195 33.811C15.3578 33.1237 14.7525 32.2816 14.3442 31.3413C13.9359 30.4011 13.7341 29.3845 13.7524 28.3599C13.7242 27.3826 13.9433 26.4139 14.3897 25.5435L16.9389 25.3618C23.1297 25.3618 28.4102 27.4514 28.4102 30.0861C28.4102 32.7208 26.6804 32.8116 24.5864 33.7202C24.1312 33.9019 24.1312 34.0836 24.1312 34.2653C24.1312 34.447 24.4043 34.5378 24.6775 34.447C28.3191 33.3568 30.9594 31.358 30.9594 29.0867C30.9594 26.8154 25.861 23.4539 19.397 23.4539ZM73.9312 25.3618V28.0873L72.2925 27.9056C68.7418 27.9056 66.3747 30.2678 66.3747 34.0836C66.3747 37.8994 68.6508 39.989 72.2925 39.989C73.9314 40.0358 75.5656 39.7896 77.1177 39.2621V22.7271C76.1735 23.0853 75.2847 23.5747 74.4775 24.1807C74.2883 24.3103 74.1378 24.4884 74.0416 24.6963C73.9455 24.9042 73.9073 25.1341 73.9312 25.3618ZM73.9312 37.2634C73.4913 37.408 73.0282 37.4696 72.5656 37.4451C70.4716 37.4451 69.6523 36.0823 69.6523 34.0836C69.6523 32.0848 70.4716 30.4495 72.5656 30.4495L73.9312 30.6312V37.2634ZM106.524 37.4451C104.977 37.4451 103.884 36.1732 103.884 33.9927C103.884 31.8123 104.795 30.5403 106.524 30.5403C107.24 30.5211 107.952 30.6447 108.618 30.9038C108.813 30.104 109.186 29.3585 109.711 28.7233C108.623 28.1348 107.396 27.8522 106.16 27.9056C102.609 27.9056 100.607 30.3586 100.607 33.9927C100.607 37.6268 102.701 39.989 106.251 39.989C107.477 40.0491 108.699 39.7991 109.802 39.2621C109.267 38.5722 108.837 37.8067 108.527 36.9908C107.906 37.3023 107.219 37.4582 106.524 37.4451ZM59.7287 27.9056C58.5648 27.882 57.4025 28.0041 56.2691 28.269C56.0867 29.1072 56.0867 29.9747 56.2691 30.8129C57.2159 30.5442 58.1984 30.4216 59.1824 30.4495C60.8212 30.4495 61.6405 31.0855 61.6405 32.4482V32.6299L60.0928 32.4482C57.4526 32.4482 55.0855 33.4476 55.0855 36.0823C55.0855 38.717 57.1795 39.989 60.2749 39.989C61.7521 39.9556 63.2197 39.742 64.6449 39.353V32.7208C64.6449 29.541 62.9151 27.9965 59.7287 27.9056ZM61.6405 37.4451H60.2749C58.8182 37.4451 57.9989 36.9908 57.9989 35.9915C57.9989 34.9921 58.8182 34.5378 60.2749 34.5378H61.6405V37.4451ZM115.446 27.9056C111.896 27.9056 109.893 30.3586 109.893 33.9927C109.893 37.6268 111.987 39.989 115.446 39.989C118.906 39.989 121 37.6268 121 33.9927C121 30.3586 118.997 27.9056 115.446 27.9056ZM115.446 37.4451C113.626 37.4451 113.17 35.9915 113.17 33.9927C113.17 31.994 113.626 30.4495 115.446 30.4495C117.267 30.4495 117.814 31.9031 117.814 33.9927C117.814 36.0823 117.176 37.4451 115.446 37.4451ZM84.4011 27.9056C81.0325 27.9056 78.9386 30.1769 78.9386 33.9927C78.9386 37.8085 81.1236 39.989 84.9473 39.989C86.1922 40.0304 87.4322 39.8138 88.589 39.353C88.7696 38.5453 88.7696 37.7077 88.589 36.9C87.5314 37.2502 86.4257 37.4341 85.3115 37.4451C83.4907 37.4451 82.3071 36.7183 82.034 34.9012H89.2263C89.3369 34.3628 89.3979 33.8154 89.4084 33.2659C89.4084 29.8135 87.4055 27.9056 84.4011 27.9056ZM82.034 32.5391C82.0457 32.2407 82.1162 31.9476 82.2416 31.6765C82.3669 31.4054 82.5446 31.1616 82.7645 30.9591C82.9843 30.7566 83.2421 30.5993 83.5229 30.4963C83.8037 30.3932 84.1021 30.3465 84.4011 30.3586C85.8577 30.3586 86.404 31.2672 86.404 32.5391H82.034ZM96.6918 32.9025L95.3261 32.3574C94.5978 31.994 94.2336 31.8123 94.2336 31.2672C94.2336 30.7221 94.8709 30.3586 95.6903 30.3586C96.7138 30.386 97.727 30.5699 98.6947 30.9038C98.877 30.1269 98.877 29.3185 98.6947 28.5416C97.6077 28.061 96.4224 27.8431 95.2351 27.9056C92.7769 27.9056 90.9561 29.1776 90.9561 31.1763C90.9561 33.1751 91.6844 33.9019 93.8695 34.8104L94.8709 35.1738C95.7813 35.5372 96.0545 35.8098 96.0545 36.4457C96.0545 37.0817 95.144 37.4451 94.4157 37.4451C93.2318 37.4619 92.0563 37.2458 90.9561 36.8091C90.6856 37.6045 90.6856 38.4668 90.9561 39.2621C92.1856 39.8082 93.5269 40.0572 94.8709 39.989C97.3291 39.989 99.332 38.717 99.332 36.4457C99.332 34.1744 98.5126 33.6293 96.6918 32.9025Z" fill="#E5173F"/>
</svg>
