<svg width="130" height="60" viewBox="0 0 130 60" fill="none" xmlns="http://www.w3.org/2000/svg">
<path d="M31.5116 16.5099C20.9354 16.5099 12.3567 22.0103 12.3567 28.7787C12.3567 35.5471 20.9354 41.5832 31.5116 41.5832C42.0878 41.5832 50.6665 35.5649 50.6665 28.7787C50.6665 21.9925 42.0878 16.5099 31.5116 16.5099Z" fill="#00BCFF"/>
<path d="M25.2694 24.9926C25.2515 25.0105 25.0732 25.2069 25.198 25.3677C25.5012 25.7427 26.4108 25.957 27.3383 25.7605C27.8911 25.6355 28.5867 25.0819 29.2823 24.5283C30.0314 23.939 30.7626 23.3497 31.4938 23.1175C32.2786 22.8675 32.778 22.9746 33.1168 23.0818C33.4735 23.1889 33.9016 23.4389 34.5972 23.939C35.8813 24.9033 41.0356 29.4215 41.9452 30.1894C42.6586 29.868 46.083 28.475 50.4169 27.5285C50.0424 25.2069 48.6512 23.0103 46.511 21.2781C43.5325 22.5282 39.6623 23.2782 36.0953 21.5459C36.0775 21.5459 34.1513 20.6352 32.2608 20.6709C29.4428 20.7423 28.2122 21.9567 26.928 23.2604L25.2694 24.9926Z" fill="white"/>
<path d="M41.7133 30.6717C41.6597 30.6181 35.6493 25.3499 34.276 24.3319C33.4913 23.7426 33.0454 23.5819 32.5817 23.5283C32.3498 23.4926 32.0109 23.5462 31.7791 23.5997C31.137 23.7783 30.3166 24.3319 29.5854 24.9034C28.8185 25.5106 28.105 26.0821 27.4451 26.2249C26.5891 26.4214 25.5546 26.1892 25.0731 25.8678C24.8769 25.7427 24.752 25.582 24.6807 25.4392C24.5024 25.0284 24.8234 24.7069 24.8769 24.6534L26.5356 22.8497C26.7317 22.6532 26.9279 22.4568 27.1241 22.2782C26.5891 22.3496 26.0897 22.4925 25.6081 22.6175C25.0017 22.7782 24.431 22.939 23.8425 22.939C23.5928 22.939 22.2908 22.7247 22.0411 22.6532C20.543 22.2425 18.8308 21.8496 16.8689 20.921C14.5147 22.6711 12.9809 24.832 12.5172 27.2607C12.856 27.35 13.7478 27.5464 13.9796 27.6C19.3123 28.7965 20.971 30.0109 21.2742 30.2609C21.5952 29.9038 22.0768 29.6716 22.594 29.6716C23.1826 29.6716 23.7176 29.9752 24.0386 30.4217C24.3418 30.1716 24.7699 29.9752 25.3049 29.9752C25.5546 29.9752 25.8043 30.0288 26.0718 30.1002C26.6782 30.3145 26.9814 30.7074 27.142 31.0646C27.3381 30.9753 27.5878 30.9038 27.891 30.9038C28.1764 30.9038 28.4796 30.9753 28.7828 31.1003C29.7637 31.5289 29.9242 32.4932 29.8351 33.2254C29.9064 33.2254 29.9777 33.2076 30.0491 33.2076C31.2084 33.2076 32.1715 34.1541 32.1715 35.3327C32.1715 35.6899 32.0823 36.0292 31.9218 36.3328C32.2428 36.5114 33.0454 36.9221 33.7588 36.8328C34.3295 36.7614 34.5435 36.565 34.6149 36.4578C34.6684 36.3864 34.7219 36.2971 34.6684 36.2257L33.1702 34.547C33.1702 34.547 32.9205 34.3148 33.0097 34.2255C33.0989 34.1362 33.2416 34.2612 33.3486 34.3505C34.1155 34.9934 35.0429 35.9578 35.0429 35.9578C35.0607 35.9756 35.1143 36.0828 35.471 36.1542C35.7742 36.2078 36.2914 36.1721 36.6659 35.8685C36.7551 35.797 36.8443 35.6899 36.9334 35.6006L36.9156 35.6185C37.308 35.1184 36.8799 34.6184 36.8799 34.6184L35.1143 32.6361C35.1143 32.6361 34.8646 32.4039 34.9537 32.3147C35.0251 32.2254 35.1856 32.3504 35.3104 32.4397C35.8633 32.904 36.6481 33.6898 37.415 34.4398C37.5577 34.547 38.2176 34.9577 39.1093 34.3862C39.6444 34.0291 39.7514 33.6005 39.7336 33.279C39.6979 32.8504 39.359 32.5468 39.359 32.5468L36.9513 30.1359C36.9513 30.1359 36.7016 29.9216 36.7908 29.8145C36.8621 29.7252 37.0226 29.8502 37.1296 29.9395C37.8965 30.5824 39.9654 32.4754 39.9654 32.4754C40.0011 32.4932 40.7145 33.0111 41.5884 32.4397C41.9094 32.2432 42.1056 31.9396 42.1235 31.5825C42.1413 31.0288 41.7133 30.6717 41.7133 30.6717Z" fill="white"/>
<path d="M30.067 33.7255C29.6925 33.7255 29.2823 33.9398 29.2288 33.9041C29.1931 33.8862 29.2466 33.7434 29.2823 33.6541C29.318 33.5648 29.7995 32.1004 28.6224 31.5825C27.7128 31.1896 27.1421 31.6361 26.9637 31.8325C26.9102 31.8861 26.8924 31.8861 26.8924 31.8147C26.8745 31.5468 26.7497 30.8325 25.965 30.5824C24.8413 30.2431 24.1101 31.0289 23.9317 31.3146C23.8426 30.6717 23.3075 30.1717 22.6476 30.1717C21.9164 30.1717 21.3457 30.761 21.3278 31.4754C21.3278 32.2076 21.9164 32.779 22.6298 32.779C22.9865 32.779 23.3075 32.6362 23.5394 32.4219C23.5394 32.4219 23.5572 32.4397 23.5394 32.4576C23.4859 32.779 23.3789 33.9577 24.6095 34.4399C25.1089 34.6363 25.5191 34.4934 25.8758 34.2434C25.9828 34.172 26.0006 34.2077 25.9828 34.297C25.9293 34.6006 26.0006 35.2435 26.9102 35.6185C27.6058 35.9043 28.016 35.6185 28.2835 35.3685C28.4084 35.2613 28.4262 35.2792 28.444 35.4399C28.4797 36.315 29.2109 37.0115 30.0849 37.0115C30.9945 37.0115 31.7257 36.2793 31.7257 35.3685C31.7079 34.4756 30.9766 33.7434 30.067 33.7255Z" fill="white"/>
<path d="M31.5116 16.0099C20.7392 16.0099 12 21.7425 12 28.7965C12 28.9751 12 29.4752 12 29.5466C12 37.0114 19.6334 43.0654 31.5116 43.0654C43.3898 43.0654 51.0233 37.0114 51.0233 29.5466V28.7965C51.0233 21.7425 42.284 16.0099 31.5116 16.0099ZM50.1315 27.3679C45.8867 28.3144 42.7299 29.6895 41.9273 30.0288C40.0725 28.4037 35.7921 24.6891 34.6328 23.814C33.9729 23.314 33.527 23.0461 33.1168 22.939C32.9384 22.8854 32.6887 22.8318 32.3677 22.8318C32.0645 22.8318 31.7613 22.8854 31.4225 22.9925C30.6734 23.2247 29.9243 23.8319 29.2109 24.4034V24.4212C28.5332 24.957 27.8376 25.5106 27.3204 25.6356C27.0885 25.6892 26.8567 25.707 26.6248 25.707C26.0362 25.707 25.5012 25.5284 25.305 25.2784C25.2693 25.2427 25.2872 25.1713 25.3763 25.0641L25.3942 25.0463L27.0172 23.2961C28.3013 22.0103 29.4963 20.8138 32.2785 20.7424C32.332 20.7424 32.3677 20.7424 32.4212 20.7424C34.1512 20.7424 35.8812 21.5103 36.0596 21.5996C37.6826 22.3854 39.3412 22.7961 41.0356 22.7961C42.7834 22.7961 44.5848 22.3675 46.4753 21.4924C48.4193 23.1711 49.7391 25.1891 50.1315 27.3679ZM31.5116 16.7599C37.2367 16.7599 42.3554 18.4029 45.7976 20.9924C44.1389 21.7067 42.5516 22.0818 41.0177 22.0818C39.4483 22.0818 37.8788 21.7067 36.3628 20.9567C36.2914 20.921 34.3831 20.0102 32.3855 20.0102C32.332 20.0102 32.2785 20.0102 32.225 20.0102C29.8886 20.0638 28.5867 20.8852 27.6949 21.6174C26.8388 21.6353 26.0897 21.8496 25.4298 22.0282C24.8413 22.1889 24.3419 22.3318 23.8425 22.3318C23.6463 22.3318 23.2718 22.3139 23.2361 22.3139C22.6654 22.2961 19.8118 21.5996 17.5289 20.7424C20.9889 18.2958 25.9649 16.7599 31.5116 16.7599ZM16.8868 21.2424C19.2589 22.2246 22.1482 22.9747 23.0756 23.0283C23.3253 23.0461 23.5928 23.0818 23.8782 23.0818C24.4846 23.0818 25.091 22.9033 25.6795 22.7425C26.0184 22.6532 26.4108 22.5461 26.8032 22.4568C26.6961 22.5639 26.5891 22.6711 26.4821 22.7782L24.8235 24.5641C24.6986 24.6891 24.4132 25.0463 24.5916 25.4749C24.6629 25.6534 24.8235 25.8142 25.0196 25.957C25.412 26.2249 26.1254 26.4035 26.7675 26.4035C27.0172 26.4035 27.249 26.3856 27.4631 26.3321C28.1586 26.1713 28.8899 25.5999 29.6568 24.9748C30.2632 24.4927 31.1371 23.8676 31.8148 23.689C32.011 23.6354 32.225 23.5997 32.4212 23.5997C32.4747 23.5997 32.5282 23.5997 32.5817 23.6176C33.0276 23.6712 33.4557 23.8319 34.2047 24.4034C35.5602 25.4213 41.5706 30.6895 41.6241 30.7431C41.6241 30.7431 42.0165 31.0824 41.9808 31.636C41.963 31.9396 41.8025 32.2075 41.4993 32.4039C41.2496 32.5647 40.9821 32.654 40.7146 32.654C40.3043 32.654 40.0368 32.4575 40.019 32.4575C40.0011 32.4397 37.9323 30.5467 37.1832 29.9038C37.0583 29.7966 36.9513 29.7073 36.8265 29.7073C36.7552 29.7073 36.7016 29.743 36.666 29.7788C36.5411 29.9216 36.6838 30.1359 36.8443 30.2609L39.2521 32.6897C39.2521 32.6897 39.5553 32.9754 39.5909 33.3504C39.6088 33.7433 39.4126 34.0826 39.0202 34.3505C38.7349 34.547 38.4495 34.6363 38.1641 34.6363C37.7896 34.6363 37.5399 34.4755 37.4864 34.4219L37.1475 34.0826C36.5233 33.4576 35.8634 32.8147 35.3819 32.4218C35.257 32.3325 35.15 32.2432 35.0251 32.2432C34.9716 32.2432 34.9181 32.2611 34.8646 32.3147C34.8111 32.3682 34.7755 32.4754 34.9003 32.6718C34.9538 32.7433 35.0251 32.8147 35.0251 32.8147L36.773 34.797C36.7908 34.8148 37.1297 35.2256 36.8087 35.6363L36.7373 35.7078C36.6838 35.7613 36.6303 35.8149 36.5768 35.8685C36.2736 36.1185 35.8812 36.1364 35.7207 36.1364C35.6315 36.1364 35.5602 36.1364 35.4889 36.1185C35.3105 36.0828 35.2035 36.0471 35.15 35.9756L35.1322 35.9578C35.043 35.8506 34.1512 34.9577 33.42 34.3505C33.3308 34.2612 33.206 34.1719 33.0811 34.1719C33.0276 34.1719 32.9741 34.1898 32.9206 34.2434C32.7779 34.4041 32.9919 34.6363 33.0811 34.7255L34.5793 36.3864C34.5793 36.4042 34.5614 36.44 34.5258 36.4935C34.4723 36.565 34.2939 36.7435 33.741 36.815C33.6697 36.815 33.6162 36.8328 33.5448 36.8328C32.9919 36.8328 32.3855 36.565 32.0824 36.4042C32.225 36.1006 32.2964 35.7792 32.2964 35.4577C32.2964 34.2255 31.2976 33.2254 30.067 33.2254C30.0491 33.2254 30.0135 33.2254 29.9956 33.2254C30.0313 32.654 29.96 31.6003 28.8542 31.1181C28.5332 30.9753 28.23 30.9038 27.9268 30.9038C27.6949 30.9038 27.4631 30.9396 27.249 31.0288C27.0172 30.5824 26.6426 30.2609 26.1611 30.1002C25.8936 30.0109 25.626 29.9573 25.3585 29.9573C24.8948 29.9573 24.4846 30.1002 24.1101 30.3502C23.7533 29.9038 23.2183 29.6359 22.6476 29.6359C22.1482 29.6359 21.6666 29.8323 21.3099 30.1895C20.8462 29.8323 18.9914 28.6537 14.051 27.5286C13.8192 27.475 13.2841 27.3143 12.9453 27.225C13.3733 24.957 14.7823 22.9211 16.8868 21.2424ZM26.0541 34.1541L26.0006 34.1005H25.9471C25.9114 34.1005 25.8579 34.1184 25.8044 34.1541C25.5547 34.3327 25.305 34.4219 25.0731 34.4219C24.9305 34.4219 24.8056 34.3862 24.6629 34.3505C23.5215 33.9041 23.6107 32.8147 23.6642 32.4932C23.6642 32.4218 23.6642 32.3682 23.6107 32.3325L23.5215 32.2611L23.4501 32.3325C23.2183 32.5468 22.9329 32.6718 22.6297 32.6718C21.9698 32.6718 21.4348 32.1361 21.4348 31.4753C21.4348 30.8145 21.9698 30.2788 22.6297 30.2788C23.2183 30.2788 23.7355 30.7253 23.8069 31.3146L23.8425 31.636L24.0209 31.3682C24.0387 31.3324 24.5203 30.6002 25.412 30.6002C25.5725 30.6002 25.7509 30.636 25.9292 30.6895C26.6426 30.9038 26.7496 31.5467 26.7675 31.8146C26.7853 31.9753 26.8923 31.9753 26.9102 31.9753C26.9637 31.9753 27.0172 31.9396 27.0528 31.9039C27.1777 31.761 27.4809 31.5289 27.9268 31.5289C28.1408 31.5289 28.3548 31.5825 28.5867 31.6717C29.7103 32.1539 29.1931 33.5826 29.1931 33.6005C29.1039 33.8326 29.0861 33.9398 29.1752 33.9933L29.2109 34.0112H29.2466C29.3001 34.0112 29.3536 33.9933 29.4606 33.9576C29.6211 33.9041 29.8351 33.8326 30.067 33.8326C30.9052 33.8505 31.6008 34.5291 31.6008 35.3684C31.6008 36.2078 30.9052 36.9043 30.067 36.9043C29.2466 36.9043 28.5688 36.2614 28.5332 35.4399C28.5332 35.3684 28.5153 35.1899 28.3726 35.1899C28.3013 35.1899 28.2478 35.2256 28.1943 35.2792C28.0159 35.4399 27.7841 35.6185 27.4452 35.6185C27.2847 35.6185 27.1242 35.5827 26.9458 35.5113C26.0719 35.1541 26.0541 34.5648 26.0897 34.3148C26.0897 34.2612 26.1076 34.2076 26.0541 34.1541ZM31.5116 40.7974C21.1494 40.7974 12.7491 35.422 12.7491 28.7787C12.7491 28.5108 12.7669 28.2429 12.8026 27.975C12.8918 27.9929 13.7122 28.1893 13.8727 28.2251C18.92 29.3501 20.5965 30.5109 20.8819 30.7431C20.7927 30.9753 20.7392 31.2253 20.7392 31.4753C20.7392 32.529 21.5953 33.3683 22.6297 33.3683C22.7546 33.3683 22.8616 33.3504 22.9864 33.3326C23.147 34.1005 23.6463 34.6898 24.4132 34.9934C24.6451 35.0827 24.8591 35.1184 25.091 35.1184C25.2337 35.1184 25.3763 35.1006 25.519 35.0649C25.6617 35.422 25.9827 35.8685 26.6961 36.1721C26.9458 36.2792 27.1955 36.3328 27.4452 36.3328C27.6414 36.3328 27.8376 36.2971 28.0159 36.2257C28.3548 37.065 29.1752 37.6186 30.0848 37.6186C30.6912 37.6186 31.2619 37.3686 31.69 36.94C32.0467 37.1364 32.8136 37.5115 33.5805 37.5115C33.6875 37.5115 33.7767 37.5115 33.8659 37.4936C34.6328 37.4043 34.9895 37.1007 35.15 36.8686C35.1857 36.8328 35.2035 36.7793 35.2213 36.7435C35.3997 36.7971 35.5959 36.8328 35.8277 36.8328C36.2379 36.8328 36.6481 36.69 37.0584 36.4042C37.4507 36.1185 37.7361 35.7078 37.7718 35.3506V35.3327C37.9144 35.3684 38.0393 35.3684 38.182 35.3684C38.61 35.3684 39.038 35.2434 39.4304 34.9756C40.2152 34.4577 40.34 33.7969 40.34 33.3683C40.4827 33.404 40.6075 33.404 40.7502 33.404C41.1604 33.404 41.5528 33.279 41.9273 33.0468C42.4089 32.7433 42.6943 32.2611 42.7478 31.7075C42.7834 31.3324 42.6764 30.9574 42.4802 30.636C43.7822 30.0823 46.7607 28.993 50.2563 28.1894C50.2742 28.3858 50.2742 28.5822 50.2742 28.7965C50.2742 35.422 41.8738 40.7974 31.5116 40.7974Z" fill="#0A0080"/>
<path d="M117.923 19.9387C117.209 19.0458 116.139 18.5994 114.695 18.5994C113.25 18.5994 112.18 19.0458 111.466 19.9387C110.753 20.8317 110.396 21.8853 110.396 23.0818C110.396 24.2962 110.753 25.3677 111.466 26.2428C112.18 27.1178 113.25 27.5643 114.695 27.5643C116.139 27.5643 117.209 27.1178 117.923 26.2428C118.636 25.3677 118.993 24.3141 118.993 23.0818C118.993 21.8496 118.636 20.8317 117.923 19.9387ZM116.175 25.0463C115.836 25.5106 115.337 25.7249 114.695 25.7249C114.053 25.7249 113.553 25.4927 113.214 25.0463C112.875 24.5819 112.697 23.939 112.697 23.0997C112.697 22.2603 112.875 21.6174 113.214 21.1531C113.553 20.7067 114.053 20.4745 114.695 20.4745C115.337 20.4745 115.836 20.7067 116.175 21.1531C116.514 21.5996 116.692 22.2603 116.692 23.0997C116.692 23.939 116.514 24.5819 116.175 25.0463ZM99.8201 19.1887C99.1067 18.8315 98.2863 18.6351 97.3589 18.6351C95.9321 18.6351 94.9333 19.0101 94.3448 19.7423C93.9702 20.2245 93.774 20.8317 93.7205 21.5639H95.8429C95.8964 21.2424 96.0034 20.9745 96.1639 20.796C96.378 20.5459 96.7525 20.4031 97.2876 20.4031C97.7513 20.4031 98.108 20.4745 98.3577 20.5995C98.6074 20.7245 98.7144 20.9745 98.7144 21.3138C98.7144 21.5996 98.5538 21.8139 98.2328 21.9389C98.0545 22.0103 97.7691 22.0818 97.3589 22.1353L96.6098 22.2246C95.7537 22.3318 95.1117 22.5104 94.6658 22.7604C93.8632 23.2247 93.453 23.9748 93.453 25.0105C93.453 25.8142 93.7027 26.4214 94.2021 26.8678C94.7015 27.2964 95.3435 27.4929 96.1104 27.5286C100.926 27.7429 100.872 24.9927 100.908 24.4212V21.2603C100.89 20.2602 100.534 19.5637 99.8201 19.1887ZM98.6965 23.9926C98.6787 24.7248 98.4647 25.2427 98.0723 25.5106C97.6621 25.7963 97.2162 25.9213 96.7347 25.9213C96.4315 25.9213 96.1639 25.832 95.9678 25.6713C95.7537 25.5106 95.6467 25.2248 95.6467 24.8498C95.6467 24.4212 95.8251 24.1176 96.1639 23.9212C96.378 23.7962 96.699 23.7069 97.1805 23.6176L97.6799 23.5283C97.9296 23.4747 98.1258 23.4211 98.2685 23.3676C98.4112 23.314 98.5539 23.2426 98.6965 23.1533V23.9926ZM88.8515 20.5281C89.4044 20.5281 89.7968 20.7067 90.0643 21.046C90.2427 21.296 90.3497 21.5817 90.4032 21.9032H92.7753C92.6504 20.7067 92.2224 19.8673 91.5268 19.403C90.8134 18.9387 89.9038 18.6887 88.798 18.6887C87.4961 18.6887 86.4616 19.0815 85.7304 19.8852C84.9813 20.6888 84.6246 21.8139 84.6246 23.2604C84.6246 24.5284 84.9635 25.582 85.6412 26.3856C86.319 27.1893 87.3534 27.5822 88.7802 27.5822C90.207 27.5822 91.2771 27.1 92.0084 26.1356C92.4721 25.5463 92.7218 24.9034 92.7753 24.2426H90.3854C90.3319 24.6891 90.207 25.0463 89.9752 25.332C89.7433 25.5999 89.3688 25.7427 88.8159 25.7427C88.049 25.7427 87.5317 25.3856 87.2464 24.6891C87.0859 24.3141 87.0145 23.814 87.0145 23.2068C87.0145 22.5997 87.0859 22.046 87.2464 21.6532C87.5317 20.9031 88.0668 20.5281 88.8515 20.5281ZM83.9647 18.6708C79.0957 18.6708 79.3811 22.9925 79.3811 22.9925V27.3857H81.5926V23.2783C81.5926 22.5997 81.6818 22.0996 81.8423 21.7782C82.1455 21.2067 82.7341 20.921 83.6259 20.921C83.6972 20.921 83.7864 20.921 83.8934 20.9388C84.0004 20.9388 84.1252 20.9567 84.2679 20.9745V18.7244C84.1787 18.7244 84.1074 18.7065 84.0717 18.7065C84.0361 18.6708 84.0004 18.6708 83.9647 18.6708ZM77.6154 20.3138C77.2409 19.7423 76.7415 19.3316 76.1708 19.0637C75.5822 18.7958 74.9223 18.6708 74.1911 18.6708C72.9604 18.6708 71.9617 19.0637 71.1948 19.8316C70.4279 20.6174 70.0355 21.7246 70.0355 23.189C70.0355 24.7427 70.4635 25.8677 71.3196 26.5642C72.1757 27.2607 73.1566 27.6 74.2802 27.6C75.6357 27.6 76.688 27.1893 77.4371 26.3678C77.8473 25.9392 78.097 25.5106 78.204 25.0998H75.8497C75.7606 25.2248 75.6535 25.3499 75.5465 25.4391C75.2255 25.6892 74.8153 25.7785 74.3159 25.7785C73.8522 25.7785 73.4777 25.707 73.1388 25.4927C72.5859 25.1534 72.2827 24.5819 72.247 23.7426H78.3645C78.3645 23.0104 78.3467 22.4568 78.2931 22.0639C78.1861 21.3853 77.9543 20.8138 77.6154 20.3138ZM72.2827 22.2603C72.354 21.7067 72.5502 21.2781 72.8713 20.9567C73.1745 20.6352 73.6203 20.4745 74.1911 20.4745C74.7083 20.4745 75.1363 20.6174 75.493 20.921C75.8497 21.2246 76.0281 21.671 76.0816 22.2425H72.2827V22.2603ZM65.6302 18.6351C64.5958 18.6351 63.7219 19.0815 63.1155 19.8137C62.5447 19.0994 61.6708 18.6351 60.6007 18.6351C58.4427 18.6351 57.0515 20.2245 57.0515 22.3318V27.3679H59.0669V22.2782C59.0669 21.3496 59.6911 20.7067 60.6007 20.7067C61.9383 20.7067 62.0632 21.8139 62.0632 22.2782V27.3679H64.0786V22.2782C64.0786 21.3496 64.7206 20.7067 65.6124 20.7067C66.95 20.7067 67.0927 21.8139 67.0927 22.2782V27.3679H69.1081V22.3318C69.1437 20.1709 67.8418 18.6351 65.6302 18.6351ZM107.525 17.5636V19.9387C107.275 19.5459 106.954 19.2244 106.562 19.0101C106.169 18.7958 105.724 18.6708 105.206 18.6708C104.101 18.6708 103.227 19.0815 102.567 19.903C101.907 20.7245 101.568 21.921 101.568 23.3497C101.568 24.5998 101.907 25.6177 102.567 26.4035C103.244 27.1893 104.546 27.5464 105.724 27.5464C109.79 27.5464 109.754 24.0462 109.754 24.0462V16.0099C109.754 16.0099 107.525 15.7777 107.525 17.5636ZM107.097 25.0641C106.776 25.5284 106.294 25.7606 105.688 25.7606C105.082 25.7606 104.6 25.5284 104.297 25.0641C103.994 24.5998 103.833 23.9212 103.833 23.1354C103.833 22.4211 103.976 21.8139 104.279 21.3317C104.582 20.8495 105.046 20.5995 105.688 20.5995C106.116 20.5995 106.473 20.7245 106.794 20.9924C107.311 21.4389 107.578 22.2246 107.578 23.2604C107.596 23.9926 107.418 24.5998 107.097 25.0641ZM61.7243 30.761C59.9051 30.6717 58.9777 31.1181 58.3891 31.5646C57.5687 32.1896 57.0515 33.1361 57.0515 34.6362V42.3332H58.1216C58.407 42.3332 58.6923 42.2261 58.9064 42.0475C59.1382 41.8332 59.2631 41.5653 59.2631 41.2439V38.3508C59.5306 38.7973 59.8695 39.1366 60.2975 39.3509C60.7077 39.5473 61.1893 39.6366 61.7243 39.6366C62.7409 39.6366 63.5792 39.2259 64.2212 38.4222C64.8633 37.5829 65.2022 36.4935 65.2022 35.1541C65.2022 33.7969 64.899 32.8504 64.1499 31.9396C63.5792 31.2074 62.6696 30.7967 61.7243 30.761ZM62.4912 37.065C62.1702 37.5115 61.7243 37.7436 61.1536 37.7436C60.5472 37.7436 60.0835 37.5293 59.7624 37.065C59.4414 36.6542 59.2809 36.0471 59.2809 35.2434C59.2809 34.3684 59.4236 33.7255 59.7268 33.3147C60.0478 32.8683 60.5115 32.6361 61.1001 32.6361C61.6886 32.6361 62.1702 32.8683 62.4912 33.3147C62.8123 33.7612 62.9728 34.4041 62.9728 35.2434C62.9728 36.0113 62.8123 36.6185 62.4912 37.065ZM80.7187 31.5467C79.9696 30.9753 79.2027 30.6717 77.8829 30.7074C76.5453 30.7431 75.5644 31.1181 74.958 31.9396C74.3516 32.7611 74.0484 33.8326 74.0484 35.1541C74.0484 36.2792 74.2802 37.2079 74.7261 37.9043C75.1898 38.6008 75.7249 39.083 76.367 39.333C77.009 39.583 77.6511 39.6366 78.2931 39.4937C78.9352 39.3509 79.4524 38.9758 79.8448 38.3687V38.9044C79.8091 39.583 79.6308 40.1009 79.3454 40.4402C79.0601 40.7796 78.739 40.9939 78.3823 41.0653C78.0256 41.1367 77.6868 41.101 77.33 40.9403C76.9733 40.7796 76.7237 40.5474 76.5453 40.2438H74.2089C74.8153 42.0654 75.9032 42.869 77.8473 42.994C80.9863 43.2262 82.0029 40.5474 82.0029 39.1187V34.6005C82.0385 33.1361 81.5391 32.1718 80.7187 31.5467ZM79.7913 35.9935C79.7021 36.4935 79.5773 36.8686 79.3811 37.1007C78.9709 37.6543 78.3466 37.8508 77.5084 37.69C76.6523 37.5293 76.2243 36.7078 76.2243 35.2434C76.2243 34.5648 76.3491 33.9576 76.5988 33.4219C76.8485 32.8861 77.3479 32.6182 78.0613 32.6182C78.5963 32.6182 79.0066 32.8147 79.2741 33.1897C79.5594 33.5826 79.72 34.0112 79.8091 34.5112C79.8805 34.9934 79.8805 35.4935 79.7913 35.9935ZM72.1579 31.3324C71.4445 30.9753 70.624 30.7788 69.6966 30.7788C68.2698 30.7788 67.271 31.1538 66.6825 31.886C66.3079 32.3682 66.1118 32.9754 66.0583 33.7076H68.1806C68.2341 33.3862 68.3411 33.1183 68.5017 32.9397C68.7157 32.6897 69.0902 32.5468 69.6253 32.5468C70.089 32.5468 70.4457 32.6182 70.6954 32.7433C70.9451 32.8683 71.0521 33.1183 71.0521 33.4576C71.0521 33.7433 70.8916 33.9576 70.5705 34.0826C70.3922 34.1541 70.1068 34.2255 69.6966 34.2791L68.9475 34.3684C68.0915 34.4755 67.4316 34.6541 67.0035 34.9041C66.2009 35.3684 65.7907 36.1185 65.7907 37.1543C65.7907 37.9579 66.0404 38.5651 66.5398 39.0116C67.0392 39.4402 67.6812 39.6366 68.4482 39.6723C73.2458 39.8866 73.1923 37.1364 73.2458 36.565V33.404C73.2458 32.3861 72.8891 31.6896 72.1579 31.3324ZM71.0343 36.1364C71.0164 36.8686 70.8024 37.3864 70.41 37.6543C69.9998 37.9401 69.5539 38.0651 69.0724 38.0651C68.7692 38.0651 68.5195 37.9758 68.3055 37.8151C68.0915 37.6543 67.9844 37.3686 67.9844 36.9936C67.9844 36.565 68.1628 36.2614 68.5017 36.0649C68.7157 35.9399 69.0367 35.8506 69.5183 35.7613L70.0176 35.672C70.2673 35.6185 70.4635 35.5827 70.6062 35.5113C70.7489 35.4577 70.8916 35.3863 71.0343 35.297V36.1364ZM90.3854 32.0289C89.672 31.136 88.6018 30.6895 87.1572 30.6895C85.7126 30.6895 84.6424 31.136 83.929 32.0289C83.2156 32.9218 82.8589 33.9755 82.8589 35.172C82.8589 36.3685 83.2156 37.4579 83.929 38.3329C84.6424 39.208 85.7126 39.6366 87.1572 39.6366C88.6018 39.6366 89.672 39.1901 90.3854 38.3329C91.0988 37.4579 91.4555 36.4042 91.4555 35.172C91.4555 33.9398 91.0988 32.9218 90.3854 32.0289ZM88.6375 37.1186C88.2987 37.5829 87.7993 37.7972 87.1572 37.7972C86.5151 37.7972 86.0158 37.565 85.6769 37.1186C85.3202 36.6543 85.1597 36.0113 85.1597 35.172C85.1597 34.3327 85.338 33.6897 85.6769 33.2254C86.0158 32.779 86.5151 32.5468 87.1572 32.5468C87.7993 32.5468 88.2987 32.779 88.6375 33.2254C88.9764 33.6719 89.1547 34.3327 89.1547 35.172C89.1547 36.0292 88.9764 36.6721 88.6375 37.1186Z" fill="#0A0080"/>
</svg>
