<svg width="60" height="60" viewBox="0 0 60 60" fill="none" xmlns="http://www.w3.org/2000/svg">
<path d="M41.3769 31.7408L36.9346 20.8566C36.4973 19.848 36.1709 19.1077 35.5063 19.1077C34.8417 19.1077 34.5094 19.8772 34.1071 20.8566L31.4021 27.1295L28.7321 20.8566C28.3298 19.8947 28.0092 19.1077 27.3329 19.1077C26.6567 19.1077 26.3418 19.8306 25.8988 20.8566L21.4565 31.7466C21.2935 32.0798 21.2217 32.4501 21.2484 32.8201C21.275 33.19 21.3993 33.5462 21.6084 33.8525C21.8175 34.1588 22.1041 34.4042 22.4389 34.5637C22.7737 34.7232 23.1448 34.7912 23.5144 34.7606H25.4732V37.2383C25.4732 37.6666 25.6433 38.0773 25.9462 38.3802C26.249 38.683 26.6598 38.8532 27.0881 38.8532H27.671C28.0993 38.8532 28.5101 38.683 28.8129 38.3802C29.1158 38.0773 29.2859 37.6666 29.2859 37.2383V36.0257C29.2888 35.983 29.2888 35.9402 29.2859 35.8974V34.7315H31.2505H31.4429H31.6295H33.5999V35.8974C33.597 35.9402 33.597 35.983 33.5999 36.0257V37.2383C33.5999 37.6666 33.7701 38.0773 34.0729 38.3802C34.3758 38.683 34.7865 38.8532 35.2148 38.8532H35.7978C36.2256 38.8516 36.6354 38.681 36.9379 38.3785C37.2404 38.076 37.4111 37.6661 37.4126 37.2383V34.7606H39.3656C39.736 34.7918 40.108 34.724 40.4436 34.5642C40.7792 34.4044 41.0663 34.1583 41.2756 33.8512C41.485 33.544 41.6089 33.1868 41.6349 32.816C41.6609 32.4452 41.5879 32.0742 41.4235 31.7408H41.3769ZM29.5366 33.5539H28.0558V37.2383C28.0558 37.3465 28.0128 37.4503 27.9363 37.5269C27.8597 37.6034 27.756 37.6464 27.6477 37.6464H27.0647C26.9565 37.6464 26.8527 37.6034 26.7762 37.5269C26.6996 37.4503 26.6567 37.3465 26.6567 37.2383V35.7692V33.5539H23.5144C23.3427 33.5862 23.1653 33.568 23.0037 33.5015C22.8422 33.4351 22.7033 33.3232 22.604 33.1795C22.5047 33.0358 22.4492 32.8663 22.4441 32.6917C22.4391 32.5171 22.4849 32.3447 22.5758 32.1955L27.0064 21.3346C27.0706 21.2006 27.1988 20.9032 27.3213 20.6467C27.4087 20.8216 27.5078 21.049 27.6244 21.323L30.7492 28.6743L29.5541 31.7466C29.431 32.0316 29.3661 32.3382 29.3631 32.6485C29.3601 32.9588 29.4191 33.2666 29.5366 33.5539ZM32.1541 33.1516C32.073 33.2719 31.9636 33.3703 31.8355 33.4384C31.7075 33.5065 31.5646 33.5421 31.4196 33.5421C31.2745 33.5421 31.1317 33.5065 31.0036 33.4384C30.8756 33.3703 30.7662 33.2719 30.685 33.1516C30.6092 33.0016 30.5697 32.8358 30.5697 32.6677C30.5697 32.4996 30.6092 32.3339 30.685 32.1839L31.4196 30.3009L32.1775 32.1897C32.2483 32.3409 32.2831 32.5065 32.279 32.6734C32.275 32.8403 32.2322 33.004 32.1541 33.1516ZM40.2342 33.1516C40.124 33.2845 39.983 33.3884 39.8235 33.4545C39.664 33.5205 39.4908 33.5466 39.319 33.5306H36.165V37.215C36.165 37.3232 36.122 37.427 36.0455 37.5035C35.969 37.5801 35.8652 37.6231 35.757 37.6231H35.174C35.0657 37.6231 34.9619 37.5801 34.8854 37.5035C34.8089 37.427 34.7659 37.3232 34.7659 37.215V33.5539H33.3026C33.4229 33.2678 33.4848 32.9606 33.4848 32.6503C33.4848 32.3399 33.4229 32.0327 33.3026 31.7466L32.0667 28.6743L35.2323 21.323C35.3489 21.0432 35.448 20.8216 35.5296 20.6467C35.6578 20.8974 35.7861 21.1947 35.8386 21.323L40.2459 32.1839C40.3265 32.3366 40.3687 32.5067 40.3687 32.6794C40.3687 32.8521 40.3265 33.0222 40.2459 33.1749L40.2342 33.1516Z" fill="#165C7D"/>
<path d="M43.7437 40.0306C42.1669 41.7289 40.2562 43.083 38.1314 44.0079C36.0066 44.9329 33.7136 45.4088 31.3962 45.4057C30.8832 45.4057 30.3702 45.4057 29.8688 45.3357C26.2775 46.2885 22.4813 46.1258 18.9846 44.8694C21.3059 47.8748 24.508 50.0801 28.1436 51.177C31.7793 52.2739 35.6667 52.2077 39.2629 50.9875C42.859 49.7674 45.9842 47.4544 48.2017 44.3716C50.4192 41.2888 51.6183 37.5902 51.6314 33.7928C51.6324 32.9915 51.5798 32.191 51.474 31.3967C49.9014 35.0366 47.1883 38.0668 43.7437 40.0306Z" fill="url(#paint0_linear_43_28)"/>
<path d="M34.2469 11.9311C36.8779 12.3823 39.3647 13.45 41.5037 15.0469C43.6428 16.6439 45.3733 18.7246 46.5536 21.1189C49.263 23.9191 51.0003 27.5162 51.5089 31.3793C53.0794 27.7007 53.396 23.6075 52.4099 19.7311C51.4238 15.8547 49.1898 12.4104 46.0524 9.92941C42.915 7.44839 39.0485 6.06847 35.0492 6.00248C31.0499 5.93649 27.1399 7.18809 23.9224 9.56425C24.3538 9.56425 24.7793 9.52345 25.2166 9.52345C28.3855 9.52199 31.4993 10.3522 34.2469 11.9311Z" fill="url(#paint1_linear_43_28)"/>
<path d="M48.2734 28.5519C48.2753 32.8144 46.6559 36.9182 43.7437 40.0307C47.2042 38.0683 49.9304 35.031 51.5089 31.3793C51.0003 27.5162 49.263 23.9191 46.5536 21.1189C47.6891 23.432 48.2775 25.9751 48.2734 28.5519Z" fill="#886B25"/>
<path d="M15.2301 33.3206C14.5563 31.0239 14.3778 28.6104 14.7065 26.2396C15.0351 23.8689 15.8634 21.5949 17.1365 19.5681C18.1965 15.5595 20.5898 12.0313 23.9224 9.56421C19.7577 9.86117 15.8214 11.5797 12.7723 14.432C9.72322 17.2844 7.74643 21.0975 7.17279 25.2332C6.59916 29.3688 7.46348 33.576 9.6211 37.1506C11.7787 40.7252 15.0987 43.4501 19.0253 44.8694C16.5796 41.6949 15.2533 37.8002 15.2535 33.7928C15.2243 33.6237 15.2301 33.4722 15.2301 33.3206Z" fill="url(#paint2_linear_43_28)"/>
<path d="M29.8805 45.3359C26.5163 45.03 23.3214 43.7212 20.7094 41.579C18.0974 39.4369 16.1887 36.5599 15.2302 33.3207C15.2302 33.4723 15.2302 33.6238 15.2302 33.7754C15.2301 37.7828 16.5564 41.6775 19.0021 44.852C22.4988 46.1085 26.295 46.2711 29.8863 45.3184L29.8805 45.3359Z" fill="#007D8A"/>
<path d="M17.1365 19.5682C18.9177 16.7499 21.4924 14.5213 24.5369 13.1624C27.5814 11.8035 30.9596 11.3752 34.2469 11.9311C31.4913 10.3452 28.3668 9.51281 25.1874 9.5176C24.7502 9.5176 24.3246 9.5176 23.8932 9.55841C20.5704 12.0317 18.1877 15.5616 17.1365 19.5682Z" fill="#007041"/>
<defs>
<linearGradient id="paint0_linear_43_28" x1="18.9963" y1="41.6805" x2="51.6664" y2="41.6805" gradientUnits="userSpaceOnUse">
<stop stop-color="#00A9CE"/>
<stop offset="0.41" stop-color="#00A7CB"/>
<stop offset="0.66" stop-color="#009FC3"/>
<stop offset="0.86" stop-color="#0091B5"/>
<stop offset="1" stop-color="#0083A6"/>
</linearGradient>
<linearGradient id="paint1_linear_43_28" x1="23.8932" y1="18.6762" x2="52.9838" y2="18.6762" gradientUnits="userSpaceOnUse">
<stop stop-color="#FFA300"/>
<stop offset="0.35" stop-color="#FCA200"/>
<stop offset="0.56" stop-color="#F49D00"/>
<stop offset="0.73" stop-color="#E69600"/>
<stop offset="0.89" stop-color="#D28B00"/>
<stop offset="1" stop-color="#BD8000"/>
</linearGradient>
<linearGradient id="paint2_linear_43_28" x1="6.96934" y1="27.2168" x2="23.8932" y2="27.2168" gradientUnits="userSpaceOnUse">
<stop stop-color="#00B140"/>
<stop offset="0.39" stop-color="#00AE40"/>
<stop offset="0.62" stop-color="#01A63E"/>
<stop offset="0.82" stop-color="#02983B"/>
<stop offset="0.99" stop-color="#038437"/>
<stop offset="1" stop-color="#038237"/>
</linearGradient>
</defs>
</svg>
