<svg width="130" height="60" viewBox="0 0 130 60" fill="none" xmlns="http://www.w3.org/2000/svg">
<path d="M47.0352 33.731C46.607 35.0466 45.9302 35.5715 44.9357 35.5715C43.9412 35.5715 43.2747 35.0881 42.8327 33.731L38.9272 21.8177H41.8728L44.9598 32.3221L48.0677 21.8177H50.9096L47.0352 33.731Z" fill="#165C7D"/>
<path d="M52.4636 21.8177H55.2261V35.4334H52.4636V21.8177Z" fill="#165C7D"/>
<path d="M56.7971 35.4335L60.8476 23.5755C61.3034 22.2426 62.039 21.6763 63.0852 21.6763C64.1315 21.6763 64.8671 22.2806 65.3056 23.5755L69.2836 35.4335H66.3519L65.316 32.0598H60.6646L59.6494 35.4335H56.7971ZM64.6633 29.9396L62.9678 24.4353L61.3034 29.9396H64.6633Z" fill="#165C7D"/>
<path d="M79.6603 35.1641C78.4953 35.4486 77.2992 35.5855 76.1001 35.5715C71.5765 35.5715 70.4612 33.4582 70.4612 28.6239C70.4612 23.7895 71.5834 21.6762 76.1001 21.6762C77.2996 21.6636 78.4958 21.8028 79.6603 22.0906L79.4151 24.2246C78.4871 24.0713 77.5483 23.9927 76.6077 23.9898C73.3376 23.9898 73.2789 25.9477 73.2789 28.6239C73.2789 31.3 73.3238 33.258 76.6077 33.258C77.5459 33.2564 78.4825 33.179 79.4082 33.0266L79.6603 35.1641Z" fill="#165C7D"/>
<path d="M84.3772 35.4334H81.6147V22.0526C83.0791 21.7996 84.5625 21.6736 86.0486 21.6762C89.0597 21.6762 91.5183 22.2736 91.5183 25.9546C91.5183 28.3718 90.5065 29.494 88.9077 29.9809L92.0155 35.4334H88.8352L86.0416 30.2952C85.4891 30.2952 84.8572 30.2675 84.3772 30.2365V35.4334ZM84.3772 28.0403C84.936 28.0961 85.4975 28.1192 86.0589 28.1093C87.7855 28.1093 88.7834 27.6708 88.7834 25.9442C88.7834 24.4352 88.0928 23.8344 86.1176 23.8344C85.5402 23.8369 84.9635 23.8762 84.3911 23.9518L84.3772 28.0403Z" fill="#165C7D"/>
<path d="M102.313 24.0277H98.5558C96.926 24.0277 96.6463 24.373 96.6463 25.8682V27.4083H102.057V29.608H96.6463V31.3725C96.6463 32.8781 96.926 33.2234 98.5558 33.2234H102.313V35.3609C101.356 35.4092 99.5262 35.4679 98.6145 35.4679C96.1559 35.4679 93.8872 35.3332 93.8872 32.1426V25.1016C93.8872 21.911 96.1559 21.7832 98.6145 21.7832C99.6021 21.7832 101.377 21.835 102.313 21.8799V24.0277Z" fill="#165C7D"/>
<path d="M104.841 22.063C106.304 21.8041 107.788 21.6747 109.274 21.6763C114.378 21.6763 115.283 23.9968 115.283 28.624C115.283 33.2511 114.378 35.5716 109.274 35.5716C107.788 35.5756 106.305 35.4508 104.841 35.1987V22.063ZM107.603 24.0313V33.2166C108.03 33.2834 108.462 33.3168 108.895 33.3167C112.482 33.3167 112.513 31.2829 112.513 28.624C112.513 25.9651 112.482 23.9381 108.895 23.9381C108.462 23.9413 108.031 23.9724 107.603 24.0313Z" fill="#165C7D"/>
<path d="M117.658 21.8177H120.421V35.4334H117.658V21.8177Z" fill="#165C7D"/>
<path d="M42.3182 44.8191C41.9078 44.9098 41.4886 44.9549 41.0682 44.9537C39.3658 44.9537 38.948 44.1284 38.948 42.2465C38.948 40.3645 39.3693 39.5289 41.0682 39.5289C41.4884 39.5269 41.9076 39.5709 42.3182 39.6601L42.2492 40.2333C41.9295 40.1805 41.6063 40.1528 41.2823 40.1504C39.7733 40.1504 39.6973 40.9516 39.6973 42.2223C39.6973 43.4931 39.7871 44.2942 41.2823 44.2942C41.6076 44.2921 41.9321 44.2632 42.2526 44.2078L42.3182 44.8191Z" fill="#165C7D"/>
<path d="M43.1091 42.2464C43.1091 40.323 43.5649 39.5392 45.1568 39.5392C46.7487 39.5392 47.2011 40.323 47.2011 42.2464C47.2011 44.1698 46.7522 44.9537 45.1568 44.9537C43.5615 44.9537 43.1091 44.1664 43.1091 42.2464ZM46.4587 42.2464C46.4587 41.0137 46.4138 40.1504 45.1568 40.1504C43.8999 40.1504 43.855 41.0137 43.855 42.2464C43.855 43.4792 43.8964 44.339 45.1568 44.339C46.4172 44.339 46.4587 43.4757 46.4587 42.2464Z" fill="#165C7D"/>
<path d="M48.2473 42.2464C48.2473 40.323 48.6997 39.5392 50.295 39.5392C51.8904 39.5392 52.3393 40.323 52.3393 42.2464C52.3393 44.1698 51.8904 44.9537 50.295 44.9537C48.6997 44.9537 48.2473 44.1664 48.2473 42.2464ZM51.5968 42.2464C51.5968 41.0137 51.5519 40.1504 50.295 40.1504C49.0381 40.1504 48.9932 41.0137 48.9932 42.2464C48.9932 43.4792 49.0346 44.339 50.295 44.339C51.5554 44.339 51.5968 43.4757 51.5968 42.2464Z" fill="#165C7D"/>
<path d="M54.2455 44.8984H53.5168V39.6704C54.0558 39.5833 54.6008 39.5394 55.1467 39.5392C56.2793 39.5392 57.2013 39.7705 57.2013 41.1622C57.2013 42.5538 56.376 42.8196 55.2054 42.8196C54.9292 42.8196 54.4941 42.8196 54.2455 42.7886V44.8984ZM54.2455 42.1877C54.5447 42.2202 54.8457 42.2352 55.1467 42.2326C55.9962 42.2326 56.4727 42.0185 56.4727 41.1622C56.4727 40.4232 56.1274 40.1262 55.1709 40.1262C54.8614 40.1262 54.5522 40.1469 54.2455 40.1884V42.1877Z" fill="#165C7D"/>
<path d="M61.2137 40.1849H59.8601C59.0072 40.1849 58.8622 40.3506 58.8622 41.1103V41.9011H61.1101V42.4915H58.8622V43.3825C58.8622 44.1456 59.0072 44.3044 59.8601 44.3044H61.2137V44.8776C60.8132 44.8984 60.2676 44.9122 59.8843 44.9122C58.9761 44.9122 58.1335 44.8638 58.1335 43.7036V40.7926C58.1335 39.6289 58.9761 39.5806 59.8843 39.5806C60.2296 39.5806 60.8063 39.5806 61.2137 39.6151V40.1849Z" fill="#165C7D"/>
<path d="M62.3325 44.8984V39.6704C62.8715 39.5838 63.4165 39.5399 63.9624 39.5392C65.0881 39.5392 66.0343 39.7567 66.0343 41.1414C66.0343 42.1463 65.5646 42.5607 64.8429 42.7091L66.093 44.8984H65.2262L64.0625 42.7748H64.0246C63.7483 42.7748 63.3132 42.754 63.0646 42.7402V44.8984H62.3325ZM63.0646 42.1359C63.3628 42.1673 63.6626 42.1811 63.9624 42.1774C64.805 42.1774 65.2918 41.9667 65.2918 41.1414C65.2918 40.4094 64.9465 40.1262 63.99 40.1262C63.6806 40.1279 63.3715 40.1486 63.0646 40.1884V42.1359Z" fill="#165C7D"/>
<path d="M66.7112 44.8985L68.417 40.0641C68.4413 39.9201 68.5159 39.7893 68.6275 39.695C68.739 39.6007 68.8804 39.549 69.0265 39.549C69.1726 39.549 69.3139 39.6007 69.4255 39.695C69.5371 39.7893 69.6116 39.9201 69.636 40.0641L71.3142 44.8985H70.5407L70.0469 43.4275H67.9508L67.4605 44.8985H66.7112ZM69.8535 42.8542L68.9937 40.2955L68.1408 42.8542H69.8535Z" fill="#165C7D"/>
<path d="M75.2265 40.1919H73.8453V44.8985H73.1098V40.1919H71.7285V39.5945H75.23L75.2265 40.1919Z" fill="#165C7D"/>
<path d="M76.0725 39.5945H76.8046V44.8985H76.0725V39.5945Z" fill="#165C7D"/>
<path d="M80.4268 44.4426C80.3059 44.788 80.1264 44.9537 79.8536 44.9537C79.5808 44.9537 79.4012 44.8052 79.2804 44.4426L77.6643 39.6083H78.4413L79.8639 44.0973L81.3004 39.6083H82.0463L80.4268 44.4426Z" fill="#165C7D"/>
<path d="M82.4746 44.8985L84.1805 40.0641C84.2048 39.9201 84.2793 39.7893 84.3909 39.695C84.5025 39.6007 84.6438 39.549 84.7899 39.549C84.936 39.549 85.0774 39.6007 85.1889 39.695C85.3005 39.7893 85.3751 39.9201 85.3994 40.0641L87.0776 44.8985H86.3041L85.8103 43.4275H83.7143L83.2239 44.8985H82.4746ZM85.6169 42.8542L84.7571 40.2955L83.9042 42.8542H85.6169Z" fill="#165C7D"/>
<path d="M89.6123 44.8985L91.3181 40.0641C91.3425 39.9201 91.417 39.7893 91.5286 39.695C91.6402 39.6007 91.7815 39.549 91.9276 39.549C92.0737 39.549 92.2151 39.6007 92.3266 39.695C92.4382 39.7893 92.5128 39.9201 92.5371 40.0641L94.2153 44.8985H93.4418L92.948 43.4275H90.8485L90.3582 44.8985H89.6123ZM92.7546 42.8542L91.8845 40.2955L91.0315 42.8542H92.7546Z" fill="#165C7D"/>
<path d="M95.0854 39.5945H95.8175V44.8985H95.0854V39.5945Z" fill="#165C7D"/>
<path d="M100.096 44.8847C99.6919 44.8847 99.2084 44.9123 98.8562 44.9123C97.9515 44.9123 97.1055 44.8639 97.1055 43.7037V39.5945H97.841V43.3929C97.841 44.1526 97.9826 44.3149 98.8355 44.3149H100.096V44.8847Z" fill="#165C7D"/>
<path d="M100.728 42.2464C100.728 40.323 101.184 39.5392 102.775 39.5392C104.367 39.5392 104.82 40.323 104.82 42.2464C104.82 44.1698 104.371 44.9537 102.775 44.9537C101.18 44.9537 100.728 44.1664 100.728 42.2464ZM104.077 42.2464C104.077 41.0137 104.032 40.1504 102.775 40.1504C101.519 40.1504 101.474 41.0137 101.474 42.2464C101.474 43.4792 101.515 44.339 102.775 44.339C104.036 44.339 104.077 43.4757 104.077 42.2464Z" fill="#165C7D"/>
<path d="M106.47 40.8859C106.47 41.5524 106.816 41.649 107.599 41.87C108.497 42.1221 109.043 42.4778 109.043 43.4309C109.043 44.5462 108.352 44.9537 107.157 44.9537C106.693 44.9572 106.23 44.9109 105.776 44.8155L105.849 44.2182C106.279 44.2824 106.712 44.3182 107.147 44.3252C107.838 44.3252 108.297 44.1733 108.297 43.455C108.297 42.8266 107.838 42.6815 107.23 42.4951C106.298 42.2119 105.752 41.9529 105.752 40.986C105.752 39.8949 106.398 39.5392 107.561 39.5392C108.025 39.5418 108.487 39.5869 108.943 39.6739L108.874 40.254C108.518 40.1958 108.159 40.1635 107.8 40.1573C107.178 40.1573 106.47 40.2194 106.47 40.8859Z" fill="#165C7D"/>
<path d="M29.3621 30.2468L26.7308 23.7999C26.4718 23.2025 26.2785 22.7639 25.8848 22.7639C25.4911 22.7639 25.2943 23.2197 25.056 23.7999L23.4538 27.5154L21.8723 23.7999C21.634 23.2301 21.4441 22.7639 21.0435 22.7639C20.643 22.7639 20.4565 23.1921 20.1941 23.7999L17.5628 30.2503C17.4662 30.4476 17.4237 30.667 17.4395 30.8861C17.4553 31.1052 17.5289 31.3162 17.6528 31.4976C17.7766 31.679 17.9464 31.8244 18.1447 31.9189C18.343 32.0134 18.5628 32.0536 18.7817 32.0355H19.942V33.5031C19.942 33.7568 20.0428 34.0001 20.2221 34.1795C20.4015 34.3589 20.6448 34.4596 20.8985 34.4596H21.2438C21.4975 34.4596 21.7408 34.3589 21.9202 34.1795C22.0995 34.0001 22.2003 33.7568 22.2003 33.5031V32.7849C22.202 32.7596 22.202 32.7342 22.2003 32.7089V32.0183H23.364H23.478H23.5885H24.7556V32.7089C24.7539 32.7342 24.7539 32.7596 24.7556 32.7849V33.5031C24.7556 33.7568 24.8564 34.0001 25.0358 34.1795C25.2152 34.3589 25.4585 34.4596 25.7121 34.4596H26.0575C26.3109 34.4587 26.5536 34.3576 26.7328 34.1785C26.912 33.9993 27.0131 33.7565 27.014 33.5031V32.0355H28.1708C28.3902 32.054 28.6105 32.0138 28.8093 31.9192C29.0081 31.8245 29.1781 31.6788 29.3021 31.4968C29.4261 31.3149 29.4995 31.1033 29.5149 30.8837C29.5303 30.664 29.4871 30.4443 29.3897 30.2468H29.3621ZM22.3488 31.3207H21.4717V33.5031C21.4717 33.5672 21.4462 33.6287 21.4009 33.674C21.3556 33.7194 21.2941 33.7448 21.23 33.7448H20.8847C20.8206 33.7448 20.7591 33.7194 20.7138 33.674C20.6684 33.6287 20.643 33.5672 20.643 33.5031V32.6329V31.3207H18.7817C18.68 31.3399 18.575 31.3291 18.4793 31.2897C18.3835 31.2504 18.3013 31.1841 18.2425 31.099C18.1836 31.0139 18.1508 30.9135 18.1478 30.8101C18.1448 30.7066 18.1719 30.6045 18.2258 30.5162L20.8501 24.083C20.8881 24.0036 20.9641 23.8275 21.0366 23.6755C21.0884 23.7791 21.1471 23.9138 21.2162 24.0761L23.0671 28.4305L22.3592 30.2503C22.2863 30.419 22.2478 30.6007 22.2461 30.7845C22.2443 30.9683 22.2792 31.1506 22.3488 31.3207ZM23.8993 31.0825C23.8512 31.1537 23.7864 31.212 23.7105 31.2524C23.6347 31.2927 23.5501 31.3138 23.4642 31.3138C23.3782 31.3138 23.2936 31.2927 23.2178 31.2524C23.1419 31.212 23.0771 31.1537 23.0291 31.0825C22.9842 30.9936 22.9608 30.8954 22.9608 30.7959C22.9608 30.6963 22.9842 30.5981 23.0291 30.5093L23.4642 29.3939L23.9131 30.5127C23.955 30.6023 23.9756 30.7004 23.9732 30.7992C23.9708 30.8981 23.9455 30.9951 23.8993 31.0825ZM28.6853 31.0825C28.62 31.1612 28.5365 31.2227 28.442 31.2619C28.3475 31.301 28.2449 31.3164 28.1431 31.3069H26.275V33.4893C26.275 33.5534 26.2495 33.6149 26.2042 33.6602C26.1589 33.7056 26.0974 33.731 26.0333 33.731H25.688C25.6239 33.731 25.5624 33.7056 25.517 33.6602C25.4717 33.6149 25.4462 33.5534 25.4462 33.4893V31.3207H24.5795C24.6507 31.1513 24.6874 30.9693 24.6874 30.7855C24.6874 30.6017 24.6507 30.4197 24.5795 30.2503L23.8475 28.4305L25.7225 24.0761C25.7916 23.9104 25.8503 23.7791 25.8986 23.6755C25.9746 23.824 26.0505 24.0001 26.0816 24.0761L28.6922 30.5093C28.74 30.5997 28.7649 30.7005 28.7649 30.8028C28.7649 30.9051 28.74 31.0058 28.6922 31.0963L28.6853 31.0825Z" fill="#165C7D"/>
<path d="M30.7643 35.1572C29.8303 36.1631 28.6985 36.9651 27.44 37.513C26.1814 38.0609 24.8232 38.3427 23.4506 38.3409C23.1467 38.3409 22.8428 38.3409 22.5458 38.2995C20.4186 38.8638 18.17 38.7675 16.0989 38.0232C17.4738 39.8035 19.3705 41.1097 21.524 41.7594C23.6774 42.4091 25.9801 42.3699 28.1102 41.6472C30.2403 40.9245 32.0914 39.5544 33.4049 37.7284C34.7183 35.9024 35.4286 33.7117 35.4363 31.4623C35.4369 30.9877 35.4058 30.5136 35.3431 30.0431C34.4116 32.1991 32.8046 33.9939 30.7643 35.1572Z" fill="url(#paint0_linear_43_29)"/>
<path d="M25.1392 18.5132C26.6976 18.7804 28.1705 19.4128 29.4375 20.3587C30.7045 21.3046 31.7296 22.5371 32.4287 23.9553C34.0335 25.6139 35.0626 27.7446 35.3638 30.0328C36.2941 27.8538 36.4816 25.4293 35.8975 23.1333C35.3134 20.8372 33.9902 18.797 32.1318 17.3275C30.2735 15.8579 27.9832 15.0406 25.6143 15.0015C23.2455 14.9624 20.9295 15.7037 19.0237 17.1112C19.2792 17.1112 19.5313 17.087 19.7903 17.087C21.6673 17.0862 23.5117 17.5779 25.1392 18.5132Z" fill="url(#paint1_linear_43_29)"/>
<path d="M33.4472 28.358C33.4484 30.8829 32.4892 33.3136 30.7642 35.1572C32.8139 33.9948 34.4287 32.1958 35.3637 30.0328C35.0624 27.7446 34.0334 25.6139 32.4286 23.9553C33.1011 25.3254 33.4497 26.8318 33.4472 28.358Z" fill="#886B25"/>
<path d="M13.8749 31.1827C13.4758 29.8223 13.3701 28.3927 13.5647 26.9885C13.7594 25.5842 14.25 24.2373 15.0041 23.0368C15.632 20.6624 17.0496 18.5725 19.0235 17.1112C16.5567 17.2871 14.2251 18.305 12.4191 19.9945C10.613 21.684 9.44213 23.9426 9.10235 26.3923C8.76257 28.8419 9.27453 31.334 10.5525 33.4513C11.8306 35.5686 13.797 37.1826 16.1229 38.0233C14.6742 36.143 13.8886 33.836 13.8887 31.4624C13.8715 31.3622 13.8749 31.2724 13.8749 31.1827Z" fill="url(#paint2_linear_43_29)"/>
<path d="M22.5527 38.2995C20.56 38.1183 18.6676 37.3431 17.1205 36.0742C15.5733 34.8054 14.4427 33.1013 13.875 31.1826C13.875 31.2724 13.875 31.3622 13.875 31.452C13.8749 33.8256 14.6605 36.1326 16.1092 38.0129C18.1803 38.7571 20.4289 38.8535 22.5561 38.2891L22.5527 38.2995Z" fill="#007D8A"/>
<path d="M15.0042 23.0367C16.0592 21.3674 17.5843 20.0473 19.3876 19.2424C21.1909 18.4375 23.1919 18.1838 25.1391 18.5131C23.5069 17.5737 21.6561 17.0807 19.7729 17.0835C19.5139 17.0835 19.2618 17.0835 19.0063 17.1077C17.0382 18.5727 15.6268 20.6635 15.0042 23.0367Z" fill="#007041"/>
<defs>
<linearGradient id="paint0_linear_43_29" x1="16.1058" y1="36.1344" x2="35.4571" y2="36.1344" gradientUnits="userSpaceOnUse">
<stop stop-color="#00A9CE"/>
<stop offset="0.41" stop-color="#00A7CB"/>
<stop offset="0.66" stop-color="#009FC3"/>
<stop offset="0.86" stop-color="#0091B5"/>
<stop offset="1" stop-color="#0083A6"/>
</linearGradient>
<linearGradient id="paint1_linear_43_29" x1="19.0064" y1="22.5084" x2="36.2375" y2="22.5084" gradientUnits="userSpaceOnUse">
<stop stop-color="#FFA300"/>
<stop offset="0.35" stop-color="#FCA200"/>
<stop offset="0.56" stop-color="#F49D00"/>
<stop offset="0.73" stop-color="#E69600"/>
<stop offset="0.89" stop-color="#D28B00"/>
<stop offset="1" stop-color="#BD8000"/>
</linearGradient>
<linearGradient id="paint2_linear_43_29" x1="8.98184" y1="27.5672" x2="19.0062" y2="27.5672" gradientUnits="userSpaceOnUse">
<stop stop-color="#00B140"/>
<stop offset="0.39" stop-color="#00AE40"/>
<stop offset="0.62" stop-color="#01A63E"/>
<stop offset="0.82" stop-color="#02983B"/>
<stop offset="0.99" stop-color="#038437"/>
<stop offset="1" stop-color="#038237"/>
</linearGradient>
</defs>
</svg>
